<svg width="221" height="64" viewBox="0 0 221 64" fill="none" xmlns="http://www.w3.org/2000/svg">
<path d="M36.2154 11.2222C38.003 12.2815 39.6251 13.5394 41.0816 14.996C45.4513 19.3657 48.1327 25.3574 48.1327 32.0113C48.1327 37.7713 46.1134 43.0679 42.7368 47.2058L53.8927 58.0638C55.0514 59.1894 55.0845 61.0763 53.959 62.2349C52.8334 63.3935 50.9465 63.4266 49.7879 62.3011L38.4664 51.3107C34.4609 54.3231 29.4622 56.0776 24.0664 56.0776C17.4125 56.0776 11.3877 53.3962 7.05108 49.0265C2.68139 44.6569 0 38.6651 0 32.0113C0 25.3574 2.68139 19.3326 7.05108 14.996C8.40833 13.6387 9.9311 12.447 11.5863 11.4208V18.836C11.4539 18.9353 11.3546 19.0677 11.2221 19.167C7.94488 22.4443 5.89245 26.9795 5.89245 32.0113C5.89245 37.0099 7.91177 41.5451 11.2221 44.8555C14.4994 48.1327 19.0346 50.1521 24.0664 50.1521C29.065 50.1521 33.6002 48.1327 36.9106 44.8555C40.1878 41.5782 42.2403 37.043 42.2403 32.0113C42.2403 27.0126 40.2209 22.4774 36.9106 19.167C36.6788 18.9353 36.4802 18.7367 36.2485 18.5381V11.2222H36.2154Z" fill="#00618E"/>
<path d="M12.7449 29.6941L21.3187 38.268L36.1823 23.3713L39.8899 27.0458L23.1394 43.7963L21.3187 45.617L19.4649 43.7963L9.07037 33.3686L12.7449 29.6941Z" fill="#00618E"/>
<path fill-rule="evenodd" clip-rule="evenodd" d="M24.0663 0L7.64691 7.74626L24.0663 15.4263L40.4526 7.74626L24.0663 0Z" fill="#00618E"/>
<path fill-rule="evenodd" clip-rule="evenodd" d="M32.4416 12.3144V17.8758C29.9588 19.9945 27.443 20.5241 24.8278 20.6565H23.7022C21.0871 20.5241 18.4057 19.9614 15.6912 17.8758V12.3144L23.7354 16.0882L24.0333 16.2206L24.3312 16.0882L32.4416 12.3144ZM15.6912 9.69922C21.5505 13.2744 27.145 13.3075 32.4416 9.69922V10.6592L24.0664 14.5655L15.6912 10.6923V9.69922Z" fill="#00618E"/>
<path d="M21.6829 7.18358C21.9808 7.11738 22.3118 7.316 22.4111 7.64704C22.5105 7.97807 22.3449 8.276 22.047 8.34221C18.2732 9.23601 16.2539 11.2222 15.2607 13.705C14.3007 16.0223 14.2014 18.803 14.4001 21.5837C16.287 22.2126 15.7242 24.894 13.8704 24.7616C11.7849 24.6292 11.7849 22.3451 13.2745 21.6499C13.0759 18.7037 13.2083 15.7243 14.2345 13.2085C15.2939 10.3946 17.5118 8.17669 21.6829 7.18358Z" fill="#00618E"/>
<path fill-rule="evenodd" clip-rule="evenodd" d="M15.1284 11.3546L16.2208 11.8843C17.3795 10.2622 19.2333 9.00428 22.014 8.34221C22.3119 8.276 22.4774 7.94497 22.3781 7.64704C22.2788 7.316 21.9809 7.11738 21.6498 7.18358C18.4719 7.94497 16.4195 9.43463 15.1284 11.3546Z" fill="white"/>
<path d="M94.0806 12.447H51.6748V38.1686H94.0806V12.447Z" fill="#00618E"/>
<path d="M79.6143 19.9613C79.6143 18.3061 80.0446 17.0151 80.8722 16.1213C81.6998 15.2275 82.9246 14.7971 84.5136 14.7971C86.1026 14.7971 87.2943 15.2275 88.155 16.1213C88.9826 17.0151 89.413 18.273 89.413 19.9613V30.6207C89.413 32.2759 88.9826 33.5669 88.155 34.4607C87.3274 35.3545 86.1026 35.7848 84.5136 35.7848C82.9246 35.7848 81.7329 35.3545 80.8722 34.4607C80.0446 33.5669 79.6143 32.309 79.6143 30.6207V19.9613ZM82.8253 30.8524C82.8253 31.5807 82.9908 32.1103 83.2888 32.4083C83.5867 32.7062 83.984 32.8717 84.5136 32.8717C85.0102 32.8717 85.4405 32.7062 85.7384 32.4083C86.0364 32.1103 86.2019 31.5807 86.2019 30.8524V19.7627C86.2019 19.0344 86.0364 18.5047 85.7384 18.2068C85.4405 17.9089 85.0433 17.7433 84.5136 17.7433C84.0171 17.7433 83.5867 17.9089 83.2888 18.2068C82.9908 18.5047 82.8253 19.0344 82.8253 19.7627V30.8524ZM72.0997 17.9751V24.9268H73.6225C74.1191 24.9268 74.5163 24.7944 74.7811 24.5296C75.046 24.2648 75.1784 23.7351 75.1784 23.0068V19.9282C75.1784 19.1999 75.046 18.6702 74.7811 18.4054C74.5163 18.1406 74.1191 18.0082 73.6225 18.0082H72.0997V17.9751ZM73.6225 15.0288C75.2446 15.0288 76.4363 15.4592 77.2308 16.3199C78.0253 17.1806 78.4225 18.4385 78.4225 20.0937V22.7751C78.4225 24.4303 78.0253 25.6882 77.2308 26.5489C76.4363 27.4096 75.2446 27.84 73.6225 27.84H72.0997V35.5531H68.8887V15.0288H73.6225ZM59.5866 35.5531H56.3424V15.0288H66.5052V35.5531H63.228V17.9751H59.5535V35.5531H59.5866Z" fill="white"/>
<path d="M183.295 20.2595C183.295 19.3326 183.129 18.7036 182.832 18.4057C182.534 18.0746 182.136 17.9091 181.607 17.9091C181.11 17.9091 180.68 18.0746 180.382 18.3726C180.084 18.6705 179.918 19.2002 179.918 19.9284V22.1133H176.873V20.1271C176.873 18.4719 177.27 17.1808 178.098 16.287C178.925 15.3932 180.117 14.9629 181.706 14.9629C183.295 14.9629 184.487 15.3932 185.314 16.287C186.142 17.1808 186.539 18.4388 186.539 20.1271V20.6567C186.539 22.8416 185.778 24.265 184.288 24.894C185.116 25.2581 185.678 25.7878 186.043 26.5161C186.374 27.2443 186.572 28.1381 186.572 29.1975V30.8195C186.572 32.4747 186.175 33.7658 185.347 34.6596C184.52 35.5534 183.328 35.9837 181.739 35.9837C180.15 35.9837 178.958 35.5534 178.131 34.6596C177.303 33.7658 176.906 32.5078 176.906 30.8195V28.2375H179.952V31.0182C179.952 31.7464 180.117 32.2761 180.415 32.574C180.713 32.872 181.11 33.0375 181.64 33.0375C182.136 33.0375 182.567 32.872 182.865 32.574C183.163 32.2761 183.328 31.6471 183.328 30.7202V29.0982C183.328 28.1381 183.163 27.4761 182.832 27.0788C182.501 26.6816 181.971 26.483 181.209 26.483H180.713V23.5367H181.375C181.971 23.5367 182.467 23.3712 182.798 23.0733C183.129 22.7754 183.328 22.1795 183.328 21.385V20.2595H183.295ZM168.365 29.2306H171.477L169.921 18.836L168.365 29.2306ZM175.714 35.752H172.47L171.907 32.0113H167.935L167.372 35.752H164.426L167.703 15.2277H172.437L175.714 35.752ZM157.375 27.5423L156.382 29.4292V35.7189H153.171V15.1946H156.382V24.1326L160.652 15.1946H163.83L159.328 24.3312L163.83 35.7189H160.52L157.375 27.5423ZM144.332 29.2306H147.444L145.888 18.836L144.332 29.2306ZM151.681 35.752H148.437L147.874 32.0113H143.902L143.339 35.752H140.393L143.67 15.2277H148.404L151.681 35.752ZM136.023 20.2595C136.023 19.3326 135.857 18.7036 135.56 18.4057C135.262 18.0746 134.864 17.9091 134.335 17.9091C133.838 17.9091 133.408 18.0746 133.11 18.3726C132.812 18.6705 132.646 19.2002 132.646 19.9284V22.1133H129.601V20.1271C129.601 18.4719 129.998 17.1808 130.826 16.287C131.653 15.3932 132.845 14.9629 134.434 14.9629C136.023 14.9629 137.215 15.3932 138.042 16.287C138.87 17.1808 139.267 18.4388 139.267 20.1271V20.6567C139.267 22.8416 138.506 24.265 137.016 24.894C137.844 25.2581 138.406 25.7878 138.771 26.5161C139.102 27.2443 139.3 28.1381 139.3 29.1975V30.8195C139.3 32.4747 138.903 33.7658 138.075 34.6596C137.248 35.5534 136.056 35.9837 134.467 35.9837C132.878 35.9837 131.686 35.5534 130.859 34.6596C130.031 33.7658 129.634 32.5078 129.634 30.8195V28.2375H132.68V31.0182C132.68 31.7464 132.845 32.2761 133.143 32.574C133.441 32.872 133.838 33.0375 134.368 33.0375C134.864 33.0375 135.295 32.872 135.593 32.574C135.891 32.2761 136.056 31.6471 136.056 30.7202V29.0982C136.056 28.1381 135.891 27.4761 135.56 27.0788C135.228 26.6816 134.699 26.483 133.937 26.483H133.441V23.5367H134.103C134.699 23.5367 135.195 23.3712 135.526 23.0733C135.857 22.7754 136.056 22.1795 136.056 21.385V20.2595H136.023ZM127.846 28.0719V30.7864C127.846 32.4416 127.449 33.7327 126.622 34.6265C125.794 35.5203 124.602 35.9506 123.013 35.9506C121.424 35.9506 120.233 35.5203 119.405 34.6265C118.577 33.7327 118.18 32.4747 118.18 30.7864V20.1271C118.18 18.4719 118.577 17.1808 119.405 16.287C120.233 15.3932 121.424 14.9629 123.013 14.9629C124.602 14.9629 125.794 15.3932 126.622 16.287C127.449 17.1808 127.846 18.4388 127.846 20.1271V22.1133H124.801V19.9284C124.801 19.2002 124.635 18.6705 124.337 18.3726C124.039 18.0746 123.642 17.9091 123.113 17.9091C122.616 17.9091 122.186 18.0746 121.888 18.3726C121.59 18.6705 121.424 19.2002 121.424 19.9284V31.0182C121.424 31.7464 121.59 32.2761 121.888 32.574C122.186 32.872 122.583 33.0044 123.113 33.0044C123.609 33.0044 124.039 32.872 124.337 32.574C124.635 32.2761 124.801 31.7464 124.801 31.0182V28.0719H127.846ZM106.693 20.1271C106.693 18.4719 107.123 17.1808 107.951 16.287C108.779 15.3932 110.004 14.9629 111.592 14.9629C113.181 14.9629 114.373 15.3932 115.234 16.287C116.061 17.1808 116.492 18.4388 116.492 20.1271V30.7864C116.492 32.4416 116.061 33.7327 115.234 34.6265C114.406 35.5203 113.181 35.9506 111.592 35.9506C110.004 35.9506 108.812 35.5203 107.951 34.6265C107.123 33.7327 106.693 32.4747 106.693 30.7864V20.1271ZM109.904 31.0182C109.904 31.7464 110.07 32.2761 110.368 32.574C110.666 32.872 111.063 33.0375 111.592 33.0375C112.089 33.0375 112.519 32.872 112.817 32.574C113.115 32.2761 113.281 31.7464 113.281 31.0182V19.9284C113.281 19.2002 113.115 18.6705 112.817 18.3726C112.519 18.0746 112.122 17.9091 111.592 17.9091C111.096 17.9091 110.666 18.0746 110.368 18.3726C110.07 18.6705 109.904 19.2002 109.904 19.9284V31.0182ZM100.205 35.752H96.9938V15.2277H105.535V18.1739H100.238V35.752H100.205Z" fill="#00618E"/>
<path d="M215.472 47.2388L214.048 50.2512H216.895L215.472 47.2388ZM215.571 45.5174L219.444 53.8264H218.55L217.259 51.0788H213.651L212.36 53.8264H211.433L215.372 45.5174H215.571ZM199.88 53.8264L201.039 45.5174H201.204L204.581 52.3367L207.957 45.5174H208.09L209.281 53.8264H208.487L207.659 47.8677L204.713 53.8264H204.481L201.502 47.8346L200.707 53.8264H199.88ZM192.763 45.5174H197.53V46.3119H193.59V48.927H197.463V49.7215H193.59V52.9988H197.463V53.7933H192.73V45.5174H192.763ZM185.745 46.3119V45.5174H190.28V46.3119H188.426V53.8264H187.565V46.3119H185.745ZM183.593 47.0401L182.931 47.5367C182.567 47.0732 182.136 46.7091 181.64 46.4774C181.143 46.2457 180.58 46.1132 179.985 46.1132C179.323 46.1132 178.694 46.2788 178.131 46.5767C177.568 46.9077 177.138 47.3381 176.807 47.8677C176.509 48.3974 176.343 49.0264 176.343 49.6884C176.343 50.7146 176.674 51.5422 177.369 52.2374C178.065 52.9326 178.925 53.2636 179.985 53.2636C181.143 53.2636 182.136 52.8002 182.898 51.9064L183.56 52.4029C183.129 52.9326 182.633 53.3298 182.004 53.6278C181.375 53.9257 180.68 54.0581 179.918 54.0581C178.462 54.0581 177.303 53.5616 176.476 52.6016C175.78 51.774 175.416 50.814 175.416 49.6553C175.416 48.4305 175.847 47.4043 176.707 46.5767C177.568 45.7491 178.627 45.3188 179.918 45.3188C180.68 45.3188 181.408 45.4843 182.004 45.7822C182.699 46.047 183.196 46.4774 183.593 47.0401ZM172.569 53.8264H171.709V47.4374L166.213 53.8264H166.015V45.5174H166.842V52.0057L172.371 45.5174H172.569V53.8264ZM163.069 47.0401L162.407 47.5367C162.042 47.0732 161.612 46.7091 161.116 46.4774C160.619 46.2457 160.056 46.1132 159.46 46.1132C158.798 46.1132 158.169 46.2788 157.607 46.5767C157.044 46.9077 156.613 47.3381 156.282 47.8677C155.984 48.3974 155.819 49.0264 155.819 49.6884C155.819 50.7146 156.15 51.5422 156.845 52.2374C157.54 52.9326 158.401 53.2636 159.46 53.2636C160.619 53.2636 161.612 52.8002 162.373 51.9064L163.036 52.4029C162.605 52.9326 162.109 53.3298 161.48 53.6278C160.851 53.9257 160.156 54.0581 159.394 54.0581C157.938 54.0581 156.779 53.5616 155.951 52.6016C155.256 51.774 154.892 50.814 154.892 49.6553C154.892 48.4305 155.322 47.4043 156.183 46.5767C157.044 45.7491 158.103 45.3188 159.394 45.3188C160.156 45.3188 160.884 45.4843 161.48 45.7822C162.142 46.047 162.671 46.4774 163.069 47.0401ZM146.682 46.3119V49.1257H145.259C144.696 49.1257 144.299 49.0595 144.034 48.9602C143.769 48.8608 143.571 48.6953 143.405 48.4636C143.273 48.2319 143.173 47.967 143.173 47.7022C143.173 47.4374 143.24 47.1726 143.405 46.9408C143.571 46.7091 143.769 46.5436 144.001 46.4443C144.233 46.345 144.663 46.3119 145.226 46.3119H146.682ZM147.51 45.5174H145.855C144.928 45.5174 144.299 45.5505 143.968 45.6167C143.471 45.716 143.074 45.9808 142.776 46.345C142.478 46.7091 142.313 47.1725 142.313 47.7022C142.313 48.1657 142.412 48.5629 142.644 48.8939C142.842 49.225 143.173 49.4898 143.571 49.6553C143.968 49.8208 144.497 49.9202 145.226 49.9202L142.246 53.7933H143.273L146.252 49.9202H146.715V53.7933H147.543V45.5174H147.51ZM136.255 47.2388L134.831 50.2512H137.678L136.255 47.2388ZM136.354 45.5174L140.227 53.8264H139.333L138.042 51.0788H134.434L133.143 53.8264H132.216L136.155 45.5174H136.354ZM123.741 45.5174H124.569V48.9933H128.806V45.5174H129.634V53.8264H128.806V49.8208H124.569V53.8264H123.741V45.5174ZM114.572 45.5174H115.399V48.9933H119.637V45.5174H120.464V53.8264H119.637V49.8208H115.399V53.8264H114.572V45.5174ZM107.223 46.1132C106.594 46.1132 106.031 46.2788 105.468 46.6098C104.906 46.9408 104.475 47.3712 104.177 47.9008C103.879 48.4305 103.714 49.0595 103.714 49.7215C103.714 50.7146 104.045 51.5422 104.74 52.2043C105.435 52.8995 106.263 53.2305 107.223 53.2305C107.885 53.2305 108.481 53.065 109.01 52.7671C109.573 52.4691 110.003 52.0388 110.301 51.476C110.599 50.9464 110.765 50.3174 110.765 49.6553C110.765 48.9933 110.599 48.3974 110.301 47.8677C110.003 47.3381 109.573 46.9077 109.01 46.5767C108.448 46.2788 107.852 46.1132 107.223 46.1132ZM107.19 45.2856C108.448 45.2856 109.507 45.716 110.335 46.5436C111.195 47.3712 111.592 48.4305 111.592 49.6553C111.592 50.8802 111.162 51.9064 110.335 52.7671C109.474 53.6278 108.448 54.025 107.256 54.025C106.031 54.025 104.972 53.5947 104.144 52.7671C103.283 51.9395 102.886 50.9133 102.886 49.7215C102.886 48.927 103.085 48.1988 103.449 47.5036C103.846 46.8084 104.376 46.2788 105.038 45.9146C105.7 45.4843 106.428 45.2856 107.19 45.2856ZM95.9344 46.3119V49.1257L97.3579 49.1588C97.9206 49.1588 98.351 49.0926 98.6158 48.9933C98.8806 48.8939 99.0793 48.7284 99.2448 48.4967C99.4103 48.265 99.4765 48.0001 99.4765 47.7353C99.4765 47.4705 99.4103 47.2057 99.2448 46.9739C99.0793 46.7422 98.8806 46.5767 98.6489 46.4774C98.4172 46.3781 97.9869 46.345 97.4241 46.345H95.9344V46.3119ZM95.1068 45.5174H96.762C97.722 45.5174 98.351 45.5505 98.682 45.6498C99.1455 45.7822 99.5427 46.0139 99.8407 46.3781C100.139 46.7422 100.304 47.2057 100.304 47.7353C100.304 48.2981 100.172 48.7284 99.8738 49.0926C99.5758 49.4567 99.1786 49.6884 98.6489 49.8208C98.2848 49.9202 97.5565 49.9533 96.5303 49.9533H95.9344V53.8264H95.1068V45.5174ZM88.0557 46.3119V45.5174H92.591V46.3119H90.7703V53.8264H89.9096V46.3119H88.0557ZM80.7729 45.5174H81.6336V48.6291L84.9771 45.5174H86.1026L82.0971 49.2581L86.4006 53.8264H85.275L81.6336 49.9533V53.8264H80.7729V45.5174ZM73.2915 45.5174H78.0585V46.3119H74.1191V48.927H77.9922V49.7215H74.1191V52.9988H77.9922V53.7933H73.2584V45.5174H73.2915ZM70.6101 53.8264H69.7163L66.9687 47.4043L64.1549 53.8264H63.2611L66.8694 45.5174H67.068L70.6101 53.8264ZM59.9839 50.0195H56.0445V49.225H59.9176C59.8514 48.265 59.4542 47.5036 58.7259 46.9408C57.9976 46.3781 57.2363 46.1132 56.3425 46.1132C55.0845 46.1132 54.0914 46.5767 53.3631 47.5367L52.701 47.0401C53.0652 46.5105 53.5949 46.0801 54.2238 45.7491C54.8528 45.4512 55.5811 45.2856 56.3425 45.2856C57.6335 45.2856 58.6928 45.716 59.5535 46.5436C60.4142 47.3712 60.8446 48.3974 60.8446 49.6222C60.8446 50.8471 60.4473 51.9064 59.6197 52.7671C58.7921 53.6278 57.6997 54.0581 56.3425 54.0581C54.7866 54.0581 53.5617 53.4954 52.701 52.4029L53.3631 51.9064C54.1245 52.8333 55.1176 53.2636 56.2762 53.2636C57.17 53.2636 57.9645 52.9988 58.6597 52.4691C59.4211 51.9395 59.8514 51.1119 59.9839 50.0195Z" fill="#00476A"/>
<path d="M209.645 19.5643C209.116 19.5643 208.719 19.6967 208.454 19.9946C208.189 20.2594 208.023 20.7891 208.023 21.5505V27.7078C208.023 28.4692 208.156 28.9988 208.454 29.2636C208.719 29.5285 209.149 29.694 209.645 29.694H211.201V19.5974H209.645V19.5643ZM214.512 19.5643V29.6609H216.068C216.597 29.6609 216.994 29.5285 217.259 29.2305C217.524 28.9657 217.69 28.436 217.69 27.6747V21.5174C217.69 20.756 217.557 20.2263 217.259 19.9615C216.994 19.6967 216.564 19.5312 216.068 19.5312H214.512V19.5643ZM211.201 32.6733H209.645C207.99 32.6733 206.765 32.243 205.938 31.3492C205.143 30.4554 204.713 29.1643 204.713 27.476V21.7491C204.713 20.0608 205.11 18.7698 205.938 17.876C206.732 16.9822 207.99 16.5518 209.645 16.5518H211.201V15.3601H214.512V16.5518H216.068C217.723 16.5518 218.948 16.9822 219.775 17.876C220.57 18.7698 221 20.0608 221 21.7491V27.476C221 29.1643 220.603 30.4554 219.775 31.3492C218.981 32.243 217.723 32.6733 216.068 32.6733H214.512V36.3478H211.201V32.6733ZM197.496 18.3725V25.4898H199.052C199.582 25.4898 199.979 25.3574 200.244 25.0595C200.509 24.7946 200.674 24.265 200.674 23.5036V20.3588C200.674 19.5974 200.542 19.0677 200.244 18.8029C199.979 18.5381 199.549 18.3725 199.052 18.3725H197.496ZM199.052 15.3601C200.707 15.3601 201.932 15.7905 202.76 16.6843C203.554 17.5781 203.985 18.8691 203.985 20.5574V23.2719C203.985 24.9602 203.587 26.2512 202.76 27.145C201.965 28.0388 200.707 28.4692 199.052 28.4692H197.496V36.3478H194.186V15.3601H199.052ZM191.803 33.1699V36.3478H188.625V33.1699H191.803Z" fill="#00618E"/>
</svg>
