<svg width="82" height="80" viewBox="0 0 82 80" fill="none" xmlns="http://www.w3.org/2000/svg">
<path d="M78.6034 77.3054H56.5351C56.4183 76.4185 56.2553 75.5455 55.9956 74.7062C55.5389 73.2136 54.8601 71.8082 53.9962 70.5396C52.9595 68.9972 51.1822 68.1266 49.3309 68.1266H45.0359V24.0347C43.8139 24.6192 42.444 24.9551 40.9876 24.9551C39.741 24.9551 38.5562 24.7063 37.4701 24.271V68.1266H33.175C31.3237 68.1266 29.5465 68.9972 28.5098 70.5396C27.16 72.5141 26.2633 74.8181 25.9429 77.3054H6.6022C5.92 77.3054 5.36798 77.8623 5.36798 78.5492C5.36798 79.2361 5.92 79.793 6.6022 79.793H78.6034C79.2856 79.793 79.8377 79.2361 79.8377 78.5492C79.8377 77.8623 79.2856 77.3054 78.6034 77.3054Z" fill="#00628C"/>
<path d="M16.9698 62.0197C25.7328 62.0197 32.9529 55.1043 33.3972 46.2735C33.4219 45.9376 33.2985 45.6018 33.064 45.3531C32.8295 45.1168 32.5086 44.9675 32.1753 44.9675H30.2623L19.7962 21.9078C20.4997 21.2238 20.9317 20.2909 20.9933 19.2835L34.3531 17.1894C35.0631 20.2335 37.7782 22.4676 40.9876 22.4676C44.2421 22.4676 46.9451 20.2146 47.6487 17.1911L61.0101 19.2884C61.0801 20.298 61.5035 21.225 62.2037 21.9078L51.7376 44.9675H49.8246C49.4913 44.9675 49.1704 45.1168 48.9359 45.3531C48.7014 45.6018 48.578 45.9376 48.6026 46.2735C49.047 55.1043 56.2671 62.0197 65.03 62.0197C73.7929 62.0197 81.013 55.1043 81.4697 46.2735C81.482 45.9376 81.3586 45.6018 81.1241 45.3531C80.8896 45.1168 80.5687 44.9675 80.2355 44.9675H78.3348L67.844 21.8706C68.5845 21.1242 69.0289 20.1043 69.0289 19.0098C69.0289 18.6242 68.9671 18.2511 68.8561 17.878L70.3125 17.0198C70.8925 16.6716 71.09 15.9128 70.7567 15.3158C70.4112 14.7312 69.646 14.5323 69.0659 14.8805L67.4738 15.8134C66.7703 15.2661 65.9187 14.9552 65.0054 14.9552C63.5878 14.9552 62.3093 15.708 61.5961 16.8622L47.7575 14.69C47.3705 11.7208 45.1283 9.34237 42.2218 8.8109V4.60693L44.2336 6.80837C44.4804 7.06959 44.8013 7.20638 45.1345 7.20638C45.4431 7.20638 45.7393 7.09448 45.9738 6.87061C46.4799 6.41042 46.5046 5.62683 46.0478 5.11685L41.9009 0.58947C41.4319 0.0795516 40.5557 0.0795516 40.0866 0.58947L35.952 5.11685C35.483 5.62684 35.5201 6.41042 36.0138 6.87061C36.5198 7.34325 37.2973 7.30591 37.7663 6.80837L39.7534 4.63176V8.81091C36.86 9.35332 34.6298 11.7199 34.2426 14.6844L20.401 16.8581C19.6727 15.7014 18.4015 14.9552 16.9945 14.9552C16.0936 14.9552 15.242 15.2661 14.5385 15.8258L12.934 14.8806C12.3539 14.5323 11.5887 14.7312 11.2431 15.3158C10.9099 15.9128 11.1073 16.6716 11.6874 17.0198L13.1314 17.878C13.0327 18.2511 12.971 18.6243 12.971 19.0098C12.971 20.1044 13.4154 21.1367 14.1559 21.8706L3.66507 44.9675H1.76442C1.43116 44.9675 1.11025 45.1168 0.875747 45.3531C0.641245 45.6018 0.517848 45.9376 0.530204 46.2735C0.986851 55.1043 8.20696 62.0197 16.9698 62.0197ZM65.6348 23.0148L75.6195 44.9675H54.4405L64.4129 23.0148C64.8383 23.0684 65.2069 23.0908 65.6348 23.0148ZM16.3651 23.0024C16.7233 23.0661 17.1373 23.0753 17.5869 23.0148L27.5594 44.9675H6.38035L16.3651 23.0024Z" fill="#00628C"/>
</svg>
