<svg width="80" height="80" viewBox="0 0 80 80" fill="none" xmlns="http://www.w3.org/2000/svg">
<g clip-path="url(#clip0_21_1346)">
<path d="M26.5625 38.5938C27.4255 38.5938 28.125 37.8937 28.125 37.0312C28.125 36.1682 27.4255 35.4688 26.5625 35.4688C25.7001 35.4688 25 36.1682 25 37.0312C25 37.8937 25.7001 38.5938 26.5625 38.5938Z" fill="#00628C"/>
<path d="M78.4375 13.5938H67.1875V7.96875C67.1875 5.88684 65.8429 4.17542 64.0625 3.54736V1.71875C64.0625 0.855713 63.363 0.15625 62.5 0.15625C61.6369 0.15625 60.9375 0.855713 60.9375 1.71875V3.55103C60.6628 3.64868 60.3973 3.77075 60.1446 3.91907L27.8961 13.5938H14.0631C14.0625 13.5938 14.0619 13.5938 14.0606 13.5938C13.7195 13.5944 13.3825 13.7128 13.1256 13.9062L0.625582 23.2812C-0.571317 24.1785 0.0640588 26.0938 1.56308 26.0938H3.12558V45.1123C1.30673 45.7574 0.000582253 47.4939 0.000582253 49.5306C0.000582253 51.568 1.30673 53.3044 3.12558 53.9496V54.4861C1.30673 55.1312 0.000582253 56.8689 0.000582253 58.9062C0.000582253 61.4905 2.10324 63.5938 4.68808 63.5938C6.358 63.5938 7.91318 62.6953 8.74753 61.2494C9.17905 60.5017 8.92209 59.5465 8.17502 59.115C7.42734 58.6841 6.47214 58.9404 6.04062 59.6875C5.76291 60.1697 5.24472 60.4688 4.68808 60.4688C3.82627 60.4688 3.12558 59.7675 3.12558 58.9062C3.12558 58.0444 3.82627 57.3438 4.68808 57.3438C5.55051 57.3438 6.25058 56.6443 6.25058 55.7812V53.9502C8.06882 53.3051 9.37558 51.568 9.37558 49.5312C9.37558 47.4945 8.06882 45.7574 6.25058 45.1123V26.0938H56.25V77.0312H50V38.5938H51.5625C52.4255 38.5938 53.125 37.8943 53.125 37.0312V30.7812C53.125 29.9182 52.4255 29.2188 51.5625 29.2188H14.0631C13.2 29.2188 12.5006 29.9182 12.5006 30.7812V37.0312C12.5006 37.8943 13.2 38.5938 14.0631 38.5938H15.6256V77.0312H14.0631C13.2 77.0312 12.5006 77.7307 12.5006 78.5938C12.5006 79.4562 13.2 80.1562 14.0631 80.1562H70.3125C71.1755 80.1562 71.875 79.4562 71.875 78.5938C71.875 77.7307 71.1755 77.0312 70.3125 77.0312H68.75C68.75 74.6259 68.75 28.089 68.75 26.0938H78.4375C79.3005 26.0938 80 25.3943 80 24.5312V15.1562C80 14.2932 79.3005 13.5938 78.4375 13.5938ZM4.68808 51.0931C3.82627 51.0931 3.12558 50.3925 3.12558 49.5306C3.12558 48.6694 3.82627 47.9688 4.68808 47.9688C5.54929 47.9688 6.25058 48.6694 6.25058 49.5306C6.25058 50.3925 5.54929 51.0931 4.68808 51.0931ZM59.375 43.3752L65.2514 51.4056L59.375 59.4373V43.3752ZM65.625 56.1877V73.3374L59.7113 64.2694L65.625 56.1877ZM59.718 38.5516L65.625 29.6918V46.6248L59.718 38.5516ZM65.625 22.9688H58.2855L65.625 18.0756V22.9688ZM35.9375 16.7188L28.0719 22.6178L19.223 16.7188H35.9375ZM64.0625 13.5938H60.9375V7.96875C60.9375 7.50671 61.1401 7.0752 61.4905 6.77795L62.688 6.41846C63.4655 6.51184 64.0625 7.17224 64.0625 7.96875V13.5938ZM62.027 16.7188L53.1781 22.6178L45.3125 16.7188H62.027ZM40.625 17.1094L48.4375 22.9688H32.8125L40.625 17.1094ZM57.8149 7.88086C57.8143 7.91016 57.8125 7.93945 57.8125 7.96875V13.5938C54.7955 13.5938 40.7843 13.5938 38.7713 13.5938L57.8149 7.88086ZM14.1162 17.0697L22.9651 22.9688H6.25058L14.1162 17.0697ZM64.2682 26.0938L59.375 33.4332V26.0938H64.2682ZM59.375 69.4745L64.303 77.0306H59.375V69.4745ZM18.7506 38.5938H20.3125C21.1755 38.5938 21.875 37.8937 21.875 37.0312C21.875 36.1682 21.1755 35.4688 20.3125 35.4688H15.6256V32.3438H50V35.4688H32.8125C31.95 35.4688 31.25 36.1682 31.25 37.0312C31.25 37.8937 31.95 38.5938 32.8125 38.5938H46.875V77.0306H40.625V69.8431H42.1875C43.0505 69.8431 43.75 69.1437 43.75 68.2806C43.75 67.4176 43.0505 66.7181 42.1875 66.7181H23.4375C22.575 66.7181 21.875 67.4176 21.875 68.2806C21.875 69.1437 22.575 69.8431 23.4375 69.8431H25V77.0306H18.7506V38.5938ZM37.5 69.8431V77.0306H28.125V69.8431H37.5ZM76.875 22.9688H68.75V16.7188H76.875V22.9688Z" fill="#00628C"/>
<path d="M23.4375 63.5933H29.6875C30.5505 63.5933 31.25 62.8938 31.25 62.0308V55.7808C31.25 54.9183 30.5505 54.2183 29.6875 54.2183H23.4375C22.5751 54.2183 21.875 54.9183 21.875 55.7808V62.0308C21.875 62.8938 22.5751 63.5933 23.4375 63.5933ZM25 57.3433H28.125V60.4683H25V57.3433Z" fill="#00628C"/>
<path d="M35.9375 63.5933H42.1875C43.0505 63.5933 43.75 62.8938 43.75 62.0308V55.7808C43.75 54.9183 43.0505 54.2183 42.1875 54.2183H35.9375C35.0751 54.2183 34.375 54.9183 34.375 55.7808V62.0308C34.375 62.8938 35.0745 63.5933 35.9375 63.5933ZM37.5 57.3433H40.625V60.4683H37.5V57.3433Z" fill="#00628C"/>
<path d="M23.4375 51.0931H29.6875C30.5505 51.0931 31.25 50.3937 31.25 49.5306V43.2812C31.25 42.4182 30.5505 41.7188 29.6875 41.7188H23.4375C22.5751 41.7188 21.875 42.4182 21.875 43.2812V49.5306C21.875 50.3937 22.5751 51.0931 23.4375 51.0931ZM25 44.8438H28.125V47.9688H25V44.8438Z" fill="#00628C"/>
<path d="M35.9375 51.0931H42.1875C43.0505 51.0931 43.75 50.3937 43.75 49.5306V43.2812C43.75 42.4182 43.0505 41.7188 42.1875 41.7188H35.9375C35.0751 41.7188 34.375 42.4182 34.375 43.2812V49.5306C34.375 50.3937 35.0745 51.0931 35.9375 51.0931ZM37.5 44.8438H40.625V47.9688H37.5V44.8438Z" fill="#00628C"/>
</g>
<defs>
<clipPath id="clip0_21_1346">
<rect width="80" height="80" fill="white"/>
</clipPath>
</defs>
</svg>
