<svg width="77" height="82" viewBox="0 0 77 82" fill="none" xmlns="http://www.w3.org/2000/svg">
<path d="M31.409 34.5969C31.618 34.8472 31.9105 34.9928 32.219 35.0001H32.2428C32.5431 35.0001 32.8311 34.8691 33.0434 34.6346L37.9328 29.2488C38.3751 28.7615 38.3751 27.9721 37.9328 27.4849C37.4905 26.9976 36.7739 26.9976 36.3316 27.4849L32.2771 31.9503L30.9175 30.3203C30.4951 29.8135 29.7791 29.7794 29.3174 30.246C28.8568 30.7119 28.827 31.5014 29.2499 32.0087L31.409 34.5969Z" fill="#00628C"/>
<path d="M48.6006 13.8579H47.7966V8.01973C47.7966 6.99687 47.0493 6.16102 46.1094 6.16102H44.5581V13.8579H42.2934V1.86974C42.2934 1.17116 41.7839 0.609863 41.1497 0.609863H25.6478C25.025 0.609863 24.5041 1.17116 24.5041 1.86974V13.8579H22.2394V6.16102H20.6881C19.7596 6.16102 19.0008 6.99687 19.0008 8.01973V13.8579H18.6159C16.0681 13.8579 13.9959 16.1283 13.9959 18.9351V75.3704C13.9959 78.1772 16.0681 80.4476 18.6159 80.4476H48.6006C51.1484 80.4476 53.2093 78.1772 53.2093 75.3704V18.935C53.2093 16.1282 51.1484 13.8579 48.6006 13.8579ZM23.904 73.2247H21.7412C20.4843 73.2247 19.4652 72.1021 19.4652 70.7173C19.4652 69.3326 20.4843 68.2099 21.7412 68.2099H23.904C25.1609 68.2099 26.18 69.3326 26.18 70.7173C26.18 72.1021 25.1609 73.2247 23.904 73.2247ZM23.904 62.8833H21.7412C20.4843 62.8833 19.4652 61.7605 19.4652 60.3758C19.4652 58.9912 20.4843 57.8684 21.7412 57.8684H23.904C25.1609 57.8684 26.18 58.9912 26.18 60.3758C26.18 61.7605 25.1609 62.8833 23.904 62.8833ZM23.904 52.5542H21.7412C20.4843 52.5542 19.4652 51.4316 19.4652 50.0468C19.4652 48.6621 20.4843 47.5395 21.7412 47.5395H23.904C25.1609 47.5395 26.18 48.6621 26.18 50.0468C26.18 51.4316 25.1609 52.5542 23.904 52.5542ZM34.684 73.2247H32.5325C31.2756 73.2247 30.2564 72.1021 30.2564 70.7173C30.2564 69.3326 31.2756 68.2099 32.5325 68.2099H34.684C35.9409 68.2099 36.96 69.3326 36.96 70.7173C36.96 72.1021 35.9409 73.2247 34.684 73.2247ZM34.684 62.8833H32.5325C31.2756 62.8833 30.2564 61.7605 30.2564 60.3758C30.2564 58.9912 31.2756 57.8684 32.5325 57.8684H34.684C35.9409 57.8684 36.96 58.9912 36.96 60.3758C36.96 61.7605 35.9409 62.8833 34.684 62.8833ZM34.684 52.5542H32.5325C31.2756 52.5542 30.2564 51.4316 30.2564 50.0468C30.2564 48.6621 31.2756 47.5395 32.5325 47.5395H34.684C35.9409 47.5395 36.96 48.6621 36.96 50.0468C36.96 51.4316 35.9409 52.5542 34.684 52.5542ZM45.4753 73.2247H43.3125C42.0556 73.2247 41.0365 72.1021 41.0365 70.7173C41.0365 69.3326 42.0556 68.2099 43.3125 68.2099H45.4753C46.7322 68.2099 47.7513 69.3326 47.7513 70.7173C47.7513 72.1021 46.7322 73.2247 45.4753 73.2247ZM45.4753 62.8833H43.3125C42.0556 62.8833 41.0365 61.7605 41.0365 60.3758C41.0365 58.9912 42.0556 57.8684 43.3125 57.8684H45.4753C46.7322 57.8684 47.7513 58.9912 47.7513 60.3758C47.7513 61.7605 46.7322 62.8833 45.4753 62.8833ZM45.4753 52.5542H43.3125C42.0556 52.5542 41.0365 51.4316 41.0365 50.0468C41.0365 48.6621 42.0556 47.5395 43.3125 47.5395H45.4753C46.7322 47.5395 47.7513 48.6621 47.7513 50.0468C47.7513 51.4316 46.7322 52.5542 45.4753 52.5542ZM47.7513 38.6575C47.7513 39.9674 46.7775 41.0401 45.5885 41.0401H21.6279C20.439 41.0401 19.4652 39.9673 19.4652 38.6575V23.4633C19.4652 22.141 20.439 21.0807 21.6279 21.0807H45.5885C46.7775 21.0807 47.7513 22.141 47.7513 23.4633V38.6575Z" fill="#00628C"/>
<path d="M60.2978 28.0791H55.474V66.2266H60.2978C61.7925 66.2266 63.0041 64.8918 63.0041 63.2451V31.0606C63.0041 29.4139 61.7925 28.0791 60.2978 28.0791Z" fill="#00628C"/>
</svg>
