<svg width="90" height="80" viewBox="0 0 90 80" fill="none" xmlns="http://www.w3.org/2000/svg">
<path d="M82.35 71.1184H77.9625L80.1562 76.9885L82.35 71.1184Z" fill="#00628C"/>
<path d="M77.3438 65.4604H82.9688V68.2894H77.3438V65.4604Z" fill="#00628C"/>
<path d="M77.3438 59.8027H82.9688V62.6317H77.3438V59.8027Z" fill="#00628C"/>
<path d="M82.9688 13.1249C82.9688 12.7498 82.8206 12.39 82.5569 12.1247C82.2931 11.8595 81.9355 11.7104 81.5625 11.7104H78.75C78.377 11.7104 78.0194 11.8595 77.7556 12.1247C77.4919 12.39 77.3438 12.7498 77.3438 13.1249V17.3683H82.9688V13.1249Z" fill="#00628C"/>
<path d="M77.3438 20.1975H82.9688V51.3159H77.3438V20.1975Z" fill="#00628C"/>
<path d="M77.3438 54.1448H82.9688V56.9737H77.3438V54.1448Z" fill="#00628C"/>
<path d="M16.875 55.5591C16.875 55.9343 17.0232 56.2941 17.2869 56.5593C17.5506 56.8246 17.9083 56.9736 18.2812 56.9736H52.0312C52.4042 56.9736 52.7619 56.8246 53.0256 56.5593C53.2893 56.2941 53.4375 55.9343 53.4375 55.5591V34.342H16.875V55.5591ZM45 38.5855H46.4062C46.7792 38.5855 47.1369 38.7345 47.4006 38.9998C47.6643 39.265 47.8125 39.6248 47.8125 39.9999C47.8125 40.3751 47.6643 40.7349 47.4006 41.0001C47.1369 41.2654 46.7792 41.4144 46.4062 41.4144H45C44.627 41.4144 44.2694 41.2654 44.0056 41.0001C43.7419 40.7349 43.5938 40.3751 43.5938 39.9999C43.5938 39.6248 43.7419 39.265 44.0056 38.9998C44.2694 38.7345 44.627 38.5855 45 38.5855ZM45 44.2434H46.4062C46.7792 44.2434 47.1369 44.3924 47.4006 44.6576C47.6643 44.9229 47.8125 45.2827 47.8125 45.6578C47.8125 46.033 47.6643 46.3927 47.4006 46.658C47.1369 46.9233 46.7792 47.0723 46.4062 47.0723H45C44.627 47.0723 44.2694 46.9233 44.0056 46.658C43.7419 46.3927 43.5938 46.033 43.5938 45.6578C43.5938 45.2827 43.7419 44.9229 44.0056 44.6576C44.2694 44.3924 44.627 44.2434 45 44.2434ZM45 49.9013H46.4062C46.7792 49.9013 47.1369 50.0503 47.4006 50.3155C47.6643 50.5808 47.8125 50.9406 47.8125 51.3157C47.8125 51.6909 47.6643 52.0506 47.4006 52.3159C47.1369 52.5812 46.7792 52.7302 46.4062 52.7302H45C44.627 52.7302 44.2694 52.5812 44.0056 52.3159C43.7419 52.0506 43.5938 51.6909 43.5938 51.3157C43.5938 50.9406 43.7419 50.5808 44.0056 50.3155C44.2694 50.0503 44.627 49.9013 45 49.9013ZM37.9688 38.5855H39.375C39.748 38.5855 40.1056 38.7345 40.3694 38.9998C40.6331 39.265 40.7812 39.6248 40.7812 39.9999C40.7812 40.3751 40.6331 40.7349 40.3694 41.0001C40.1056 41.2654 39.748 41.4144 39.375 41.4144H37.9688C37.5958 41.4144 37.2381 41.2654 36.9744 41.0001C36.7107 40.7349 36.5625 40.3751 36.5625 39.9999C36.5625 39.6248 36.7107 39.265 36.9744 38.9998C37.2381 38.7345 37.5958 38.5855 37.9688 38.5855ZM37.9688 44.2434H39.375C39.748 44.2434 40.1056 44.3924 40.3694 44.6576C40.6331 44.9229 40.7812 45.2827 40.7812 45.6578C40.7812 46.033 40.6331 46.3927 40.3694 46.658C40.1056 46.9233 39.748 47.0723 39.375 47.0723H37.9688C37.5958 47.0723 37.2381 46.9233 36.9744 46.658C36.7107 46.3927 36.5625 46.033 36.5625 45.6578C36.5625 45.2827 36.7107 44.9229 36.9744 44.6576C37.2381 44.3924 37.5958 44.2434 37.9688 44.2434ZM37.9688 49.9013H39.375C39.748 49.9013 40.1056 50.0503 40.3694 50.3155C40.6331 50.5808 40.7812 50.9406 40.7812 51.3157C40.7812 51.6909 40.6331 52.0506 40.3694 52.3159C40.1056 52.5812 39.748 52.7302 39.375 52.7302H37.9688C37.5958 52.7302 37.2381 52.5812 36.9744 52.3159C36.7107 52.0506 36.5625 51.6909 36.5625 51.3157C36.5625 50.9406 36.7107 50.5808 36.9744 50.3155C37.2381 50.0503 37.5958 49.9013 37.9688 49.9013ZM30.9375 38.5855H32.3438C32.7167 38.5855 33.0744 38.7345 33.3381 38.9998C33.6018 39.265 33.75 39.6248 33.75 39.9999C33.75 40.3751 33.6018 40.7349 33.3381 41.0001C33.0744 41.2654 32.7167 41.4144 32.3438 41.4144H30.9375C30.5645 41.4144 30.2069 41.2654 29.9431 41.0001C29.6794 40.7349 29.5312 40.3751 29.5312 39.9999C29.5312 39.6248 29.6794 39.265 29.9431 38.9998C30.2069 38.7345 30.5645 38.5855 30.9375 38.5855ZM30.9375 44.2434H32.3438C32.7167 44.2434 33.0744 44.3924 33.3381 44.6576C33.6018 44.9229 33.75 45.2827 33.75 45.6578C33.75 46.033 33.6018 46.3927 33.3381 46.658C33.0744 46.9233 32.7167 47.0723 32.3438 47.0723H30.9375C30.5645 47.0723 30.2069 46.9233 29.9431 46.658C29.6794 46.3927 29.5312 46.033 29.5312 45.6578C29.5312 45.2827 29.6794 44.9229 29.9431 44.6576C30.2069 44.3924 30.5645 44.2434 30.9375 44.2434ZM30.9375 49.9013H32.3438C32.7167 49.9013 33.0744 50.0503 33.3381 50.3155C33.6018 50.5808 33.75 50.9406 33.75 51.3157C33.75 51.6909 33.6018 52.0506 33.3381 52.3159C33.0744 52.5812 32.7167 52.7302 32.3438 52.7302H30.9375C30.5645 52.7302 30.2069 52.5812 29.9431 52.3159C29.6794 52.0506 29.5312 51.6909 29.5312 51.3157C29.5312 50.9406 29.6794 50.5808 29.9431 50.3155C30.2069 50.0503 30.5645 49.9013 30.9375 49.9013ZM23.9062 38.5855H25.3125C25.6855 38.5855 26.0431 38.7345 26.3069 38.9998C26.5706 39.265 26.7188 39.6248 26.7188 39.9999C26.7188 40.3751 26.5706 40.7349 26.3069 41.0001C26.0431 41.2654 25.6855 41.4144 25.3125 41.4144H23.9062C23.5333 41.4144 23.1756 41.2654 22.9119 41.0001C22.6482 40.7349 22.5 40.3751 22.5 39.9999C22.5 39.6248 22.6482 39.265 22.9119 38.9998C23.1756 38.7345 23.5333 38.5855 23.9062 38.5855ZM23.9062 44.2434H25.3125C25.6855 44.2434 26.0431 44.3924 26.3069 44.6576C26.5706 44.9229 26.7188 45.2827 26.7188 45.6578C26.7188 46.033 26.5706 46.3927 26.3069 46.658C26.0431 46.9233 25.6855 47.0723 25.3125 47.0723H23.9062C23.5333 47.0723 23.1756 46.9233 22.9119 46.658C22.6482 46.3927 22.5 46.033 22.5 45.6578C22.5 45.2827 22.6482 44.9229 22.9119 44.6576C23.1756 44.3924 23.5333 44.2434 23.9062 44.2434ZM23.9062 49.9013H25.3125C25.6855 49.9013 26.0431 50.0503 26.3069 50.3155C26.5706 50.5808 26.7188 50.9406 26.7188 51.3157C26.7188 51.6909 26.5706 52.0506 26.3069 52.3159C26.0431 52.5812 25.6855 52.7302 25.3125 52.7302H23.9062C23.5333 52.7302 23.1756 52.5812 22.9119 52.3159C22.6482 52.0506 22.5 51.6909 22.5 51.3157C22.5 50.9406 22.6482 50.5808 22.9119 50.3155C23.1756 50.0503 23.5333 49.9013 23.9062 49.9013Z" fill="#00628C"/>
<path d="M64.6875 11.7105C64.6842 10.5861 64.2386 9.50869 63.4482 8.71362C62.6577 7.91855 61.5866 7.4704 60.4688 7.46704H49.2188V10.296H60.4688C60.8417 10.296 61.1994 10.445 61.4631 10.7103C61.7268 10.9755 61.875 11.3353 61.875 11.7105V64.046C61.8722 64.421 61.7262 64.7806 61.4672 65.0503L50.2172 76.3661C49.949 76.6266 49.5916 76.7735 49.2188 76.7763H9.84375C9.47079 76.7763 9.1131 76.6272 8.84938 76.362C8.58566 76.0967 8.4375 75.7369 8.4375 75.3618V11.7105C8.4375 11.3353 8.58566 10.9755 8.84938 10.7103C9.1131 10.445 9.47079 10.296 9.84375 10.296H21.0938V7.46704H9.84375C8.72589 7.4704 7.65478 7.91855 6.86433 8.71362C6.07388 9.50869 5.62834 10.5861 5.625 11.7105V75.3618C5.62834 76.4862 6.07388 77.5636 6.86433 78.3586C7.65478 79.1537 8.72589 79.6018 9.84375 79.6052H60.4688C61.5866 79.6018 62.6577 79.1537 63.4482 78.3586C64.2386 77.5636 64.6842 76.4862 64.6875 75.3618V11.7105Z" fill="#00628C"/>
<path d="M21.0938 26.5625V25.8552H18.2812C17.9083 25.8552 17.5506 26.0042 17.2869 26.2695C17.0232 26.5348 16.875 26.8946 16.875 27.2697V31.5131H53.4375V27.2697C53.4375 26.8946 53.2893 26.5348 53.0256 26.2695C52.7619 26.0042 52.4042 25.8552 52.0312 25.8552H49.2188V26.5625C49.2188 27.5003 48.8484 28.3998 48.1891 29.0629C47.5297 29.7261 46.6355 30.0986 45.7031 30.0986C44.7707 30.0986 43.8765 29.7261 43.2172 29.0629C42.5579 28.3998 42.1875 27.5003 42.1875 26.5625V25.8552H28.125V26.5625C28.125 27.5003 27.7546 28.3998 27.0953 29.0629C26.436 29.7261 25.5418 30.0986 24.6094 30.0986C23.677 30.0986 22.7828 29.7261 22.1235 29.0629C21.4641 28.3998 21.0938 27.5003 21.0938 26.5625Z" fill="#00628C"/>
<path d="M30.9375 4.6382H23.9062V13.125H46.4062V4.6382H39.375C39.002 4.6382 38.6444 4.48917 38.3806 4.22391C38.1169 3.95864 37.9688 3.59886 37.9688 3.22372C37.9688 2.47344 37.6724 1.75389 37.145 1.22335C36.6175 0.692824 35.9022 0.394775 35.1562 0.394775C34.4103 0.394775 33.695 0.692824 33.1675 1.22335C32.6401 1.75389 32.3438 2.47344 32.3438 3.22372C32.3438 3.59886 32.1956 3.95864 31.9319 4.22391C31.6681 4.48917 31.3105 4.6382 30.9375 4.6382Z" fill="#00628C"/>
<path d="M45.7031 27.2697C45.8896 27.2697 46.0684 27.1952 46.2003 27.0626C46.3322 26.9299 46.4062 26.75 46.4062 26.5625V22.3191C46.4062 22.1315 46.3322 21.9516 46.2003 21.819C46.0684 21.6863 45.8896 21.6118 45.7031 21.6118C45.5166 21.6118 45.3378 21.6863 45.2059 21.819C45.0741 21.9516 45 22.1315 45 22.3191V26.5625C45 26.75 45.0741 26.9299 45.2059 27.0626C45.3378 27.1952 45.5166 27.2697 45.7031 27.2697Z" fill="#00628C"/>
<path d="M21.0938 14.5395V13.125H11.25V73.9474H47.8125V65.4605C47.8147 64.7109 48.1118 63.9927 48.6387 63.4626C49.1657 62.9326 49.8798 62.6338 50.625 62.6316H59.0625V13.125H49.2188V14.5395C49.2188 14.9146 49.0706 15.2744 48.8069 15.5397C48.5431 15.8049 48.1855 15.9539 47.8125 15.9539H22.5C22.127 15.9539 21.7694 15.8049 21.5056 15.5397C21.2419 15.2744 21.0938 14.9146 21.0938 14.5395ZM28.125 22.3191V23.0263H42.1875V22.3191C42.1875 21.3812 42.5579 20.4818 43.2172 19.8186C43.8765 19.1555 44.7707 18.7829 45.7031 18.7829C46.6355 18.7829 47.5297 19.1555 48.189 19.8186C48.8484 20.4818 49.2188 21.3812 49.2188 22.3191V23.0263H52.0312C53.1491 23.0297 54.2202 23.4778 55.0107 24.2729C55.8011 25.068 56.2467 26.1453 56.25 27.2697V55.5592C56.2467 56.6836 55.8011 57.761 55.0107 58.5561C54.2202 59.3511 53.1491 59.7993 52.0312 59.8026H18.2812C17.1634 59.7993 16.0923 59.3511 15.3018 58.5561C14.5114 57.761 14.0658 56.6836 14.0625 55.5592V27.2697C14.0658 26.1453 14.5114 25.068 15.3018 24.2729C16.0923 23.4778 17.1634 23.0297 18.2812 23.0263H21.0938V22.3191C21.0938 21.3812 21.4641 20.4818 22.1235 19.8186C22.7828 19.1555 23.677 18.7829 24.6094 18.7829C25.5418 18.7829 26.436 19.1555 27.0953 19.8186C27.7546 20.4818 28.125 21.3812 28.125 22.3191Z" fill="#00628C"/>
<path d="M50.625 71.9529L57.0797 65.4604H50.625V71.9529Z" fill="#00628C"/>
<path d="M24.6094 27.2697C24.7959 27.2697 24.9747 27.1952 25.1066 27.0626C25.2384 26.9299 25.3125 26.75 25.3125 26.5625V22.3191C25.3125 22.1315 25.2384 21.9516 25.1066 21.819C24.9747 21.6863 24.7959 21.6118 24.6094 21.6118C24.4229 21.6118 24.2441 21.6863 24.1122 21.819C23.9803 21.9516 23.9062 22.1315 23.9062 22.3191V26.5625C23.9062 26.75 23.9803 26.9299 24.1122 27.0626C24.2441 27.1952 24.4229 27.2697 24.6094 27.2697Z" fill="#00628C"/>
<path d="M77.3438 17.3684V20.1974H74.5312V32.9276C74.5312 33.3028 74.3831 33.6625 74.1194 33.9278C73.8556 34.1931 73.498 34.3421 73.125 34.3421C72.752 34.3421 72.3944 34.1931 72.1306 33.9278C71.8669 33.6625 71.7188 33.3028 71.7188 32.9276V20.1974C71.7188 19.4471 72.0151 18.7275 72.5425 18.197C73.07 17.6665 73.7853 17.3684 74.5312 17.3684H77.3438Z" fill="#00628C"/>
</svg>
