<svg width="66" height="66" viewBox="0 0 66 66" fill="none" xmlns="http://www.w3.org/2000/svg">
<g clip-path="url(#clip0_2_59)">
<path d="M46.5001 0C41.291 0 36.3926 2.0288 32.7129 5.71149L5.71289 32.7115C2.0302 36.3955 0 41.2924 0 46.5001C0 57.252 8.74801 66.0001 19.5001 66.0001C24.712 66.0001 29.6075 63.9713 33.2872 60.2886L60.2872 33.29C63.9727 29.6059 66.0001 24.709 66.0001 19.4999C66 8.74801 57.252 0 46.5001 0ZM21.0762 30.0762L12.0762 39.0748C10.0928 41.0582 9.00001 43.6963 9.00001 46.5001C9.00001 47.3292 8.32908 48.0001 7.49996 48.0001C6.67083 48.0001 5.99991 47.3292 5.99991 46.5001C5.99991 42.8936 7.40321 39.504 9.95499 36.9537L18.955 27.9551C19.541 27.3692 20.4902 27.3692 21.076 27.9551C21.6622 28.541 21.6622 29.4902 21.0762 30.0762ZM56.045 29.0478L43.6057 41.4857L24.5155 22.3933L36.9551 9.95358C39.504 7.40335 42.8936 5.99991 46.5001 5.99991C53.9445 5.99991 60.0001 12.0556 60.0001 19.4999C60.0001 23.1064 58.5968 26.4976 56.045 29.0478Z" fill="#00628C"/>
</g>
<defs>
<clipPath id="clip0_2_59">
<rect width="66" height="66" fill="white"/>
</clipPath>
</defs>
</svg>
