<svg width="80" height="80" viewBox="0 0 80 80" fill="none" xmlns="http://www.w3.org/2000/svg">
<g clip-path="url(#clip0_21_1354)">
<path d="M68.2781 11.7225C52.6498 -3.90569 27.3529 -3.90803 11.7225 11.7225C-3.90587 27.3506 -3.90837 52.6478 11.7225 68.2783C27.3507 83.9065 52.6476 83.9088 68.2781 68.2783C83.9063 52.6502 83.9088 27.353 68.2781 11.7225ZM40.0001 73.4218C21.5715 73.4218 6.5787 58.4289 6.5787 40.0003C6.5787 21.5717 21.5715 6.57903 40.0001 6.57903C58.4287 6.57903 73.4216 21.5719 73.4216 40.0005C73.4216 58.4291 58.4289 73.4218 40.0001 73.4218Z" fill="#00628C"/>
<path d="M45.0053 20.0308H33.326C31.5119 20.0308 30.0412 21.5014 30.0412 23.3155V36.7154H26.6523C24.8381 36.7154 23.3675 38.1861 23.3675 40.0002C23.3675 41.8144 24.8381 43.285 26.6523 43.285H30.0412V46.7262H26.6523C24.8381 46.7262 23.3675 48.1969 23.3675 50.011C23.3675 51.8251 24.8381 53.2958 26.6523 53.2958H30.0412V56.6849C30.0412 58.499 31.5119 59.9697 33.326 59.9697C35.1402 59.9697 36.6108 58.499 36.6108 56.6849V53.2958H43.3368C45.1509 53.2958 46.6216 51.8251 46.6216 50.011C46.6216 48.1969 45.1509 46.7262 43.3368 46.7262H36.6108V43.285H45.0053C51.4164 43.285 56.6324 38.0691 56.6324 31.658C56.6324 25.2467 51.4166 20.0308 45.0053 20.0308ZM45.0053 36.7153H36.6108V26.6002H45.0053C47.7939 26.6002 50.0628 28.8689 50.0628 31.6576C50.0628 34.4464 47.7941 36.7153 45.0053 36.7153Z" fill="#00628C"/>
</g>
<defs>
<clipPath id="clip0_21_1354">
<rect width="80" height="80" fill="white"/>
</clipPath>
</defs>
</svg>
