<svg width="18" height="18" viewBox="0 0 18 18" fill="none" xmlns="http://www.w3.org/2000/svg">
<circle cx="9" cy="9" r="9" fill="#1F2223"/>
<path fill-rule="evenodd" clip-rule="evenodd" d="M4.02741 7.33356C3.9375 7.69249 3.9375 8.12832 3.9375 9C3.9375 9.87168 3.9375 10.3075 4.02741 10.6664C4.29637 11.7402 5.13478 12.5786 6.20856 12.8476C6.56749 12.9375 7.00332 12.9375 7.875 12.9375H10.125C10.9967 12.9375 11.4325 12.9375 11.7914 12.8476C12.8652 12.5786 13.7036 11.7402 13.9726 10.6664C14.0625 10.3075 14.0625 9.87168 14.0625 9C14.0625 8.12832 14.0625 7.69249 13.9726 7.33356C13.7036 6.25978 12.8652 5.42137 11.7914 5.15241C11.4325 5.0625 10.9967 5.0625 10.125 5.0625H7.875C7.00332 5.0625 6.56749 5.0625 6.20856 5.15241C5.13478 5.42137 4.29637 6.25978 4.02741 7.33356ZM5.90235 6.89647C5.67259 6.7433 5.36215 6.80539 5.20897 7.03515C5.0558 7.26491 5.11789 7.57535 5.34765 7.72853L8.16795 9.60872C8.6718 9.94462 9.3282 9.94462 9.83205 9.60873L12.6523 7.72853C12.8821 7.57535 12.9442 7.26491 12.791 7.03515C12.6378 6.80539 12.3274 6.7433 12.0977 6.89647L9.27735 8.77667C9.1094 8.88864 8.8906 8.88864 8.72265 8.77667L5.90235 6.89647Z" fill="white"/>
</svg>
