<svg width="20" height="20" viewBox="0 0 20 20" fill="none" xmlns="http://www.w3.org/2000/svg">
<path d="M3.33398 7.5C3.33398 5.14298 3.33398 3.96447 4.06622 3.23223C4.79845 2.5 5.97696 2.5 8.33398 2.5H11.6673C14.0243 2.5 15.2029 2.5 15.9351 3.23223C16.6673 3.96447 16.6673 5.14298 16.6673 7.5V13.1897C16.6673 15.4257 16.6673 16.5438 15.9637 16.8857C15.2602 17.2277 14.381 16.537 12.6228 15.1555L12.0601 14.7133C11.0714 13.9365 10.5771 13.5482 10.0007 13.5482C9.42421 13.5482 8.92989 13.9365 7.94125 14.7133L7.37854 15.1555C5.62027 16.537 4.74114 17.2277 4.03756 16.8857C3.33398 16.5438 3.33398 15.4257 3.33398 13.1897V7.5Z" stroke="#CCD2E3" stroke-width="2"/>
</svg>
