<svg width="79" height="80" viewBox="0 0 79 80" fill="none" xmlns="http://www.w3.org/2000/svg">
<path d="M58.9692 71.1033H56.7765C44.2737 71.1033 17.894 71.1033 5.38477 71.1033C2.92793 71.1033 0.936325 73.0949 0.936325 75.5517C0.936325 78.0085 2.92793 80.0001 5.38477 80.0001H58.9692C61.426 80.0001 63.4176 78.0085 63.4176 75.5517C63.4176 73.0949 61.426 71.1033 58.9692 71.1033Z" fill="#00628C"/>
<path d="M56.5625 63.5426C56.5625 61.696 55.0653 60.1987 53.2186 60.1987H11.133C9.28636 60.1987 7.78908 61.696 7.78908 63.5426V68.6084H56.5625V63.5426H56.5625Z" fill="#00628C"/>
<path d="M77.1849 53.2713L60.6402 36.739C59.0431 35.1419 56.7597 34.6553 54.7384 35.2792L50.7906 31.3219C53.1232 28.6602 54.9886 25.8427 56.3132 23.0541L40.3423 7.08325C36.8487 8.74275 33.3052 11.2382 30.086 14.4573C26.8669 17.6764 24.3714 21.2325 22.712 24.7261L38.6704 40.6844C41.4586 39.3601 44.2837 37.4949 46.9483 35.1626L50.9079 39.1222C50.7333 39.6961 50.6459 40.2825 50.6459 40.8814C50.6459 42.3787 51.2073 43.876 52.3553 45.0114L68.9001 61.5562C71.1834 63.8396 74.8892 63.8396 77.1849 61.5562C79.463 59.303 79.4654 55.5269 77.1849 53.2713Z" fill="#00628C"/>
<path d="M58.1811 21.3919C59.3742 22.585 61.3087 22.585 62.5018 21.3919C63.6949 20.1988 63.6949 18.2643 62.5018 17.0711L46.3256 0.894842C45.1325 -0.298281 43.198 -0.298281 42.0048 0.894842C40.8117 2.08804 40.8117 4.02252 42.0048 5.21564L58.1811 21.3919Z" fill="#00628C"/>
<path d="M32.6928 46.8802C33.8859 48.0733 35.8204 48.0733 37.0135 46.8802C38.2067 45.687 38.2067 43.7526 37.0135 42.5594L20.8373 26.3831C19.6442 25.19 17.7097 25.19 16.5166 26.3831H16.5165C15.3234 27.5763 15.3234 29.5107 16.5165 30.7039L32.6928 46.8802Z" fill="#00628C"/>
</svg>
