<svg width="112" height="80" viewBox="0 0 112 80" fill="none" xmlns="http://www.w3.org/2000/svg">
<path d="M37.1142 72.9241C37.0545 73.518 37.1058 74.1382 37.3223 74.7528C37.8509 76.2346 39.0913 77.4418 40.5607 77.8968C41.9259 78.3284 43.2843 78.0411 43.6964 77.593L46.5449 74.5364C47.369 73.6553 47.5772 72.247 47.0929 70.8804C45.9011 68.5966 44.3041 67.7724 42.2589 67.4033L37.1142 72.9241Z" fill="#00628C"/>
<path d="M33.3042 57.641L28.326 62.98C27.3145 64.0803 27.0245 65.7716 27.5892 67.3922C28.1886 69.1043 29.6191 70.4974 31.3312 71.0177C32.9518 71.5033 34.578 71.1259 35.5964 70.0423L40.2056 65.0987C41.224 64.0012 41.507 62.3182 40.9423 60.6976C40.3429 58.9771 38.9041 57.5896 37.2003 57.0721C35.8406 56.6378 34.245 56.6212 33.3042 57.641Z" fill="#00628C"/>
<path d="M23.435 48.8556L18.8383 53.7908C17.8254 54.8828 17.5424 56.5797 18.1015 58.2058C18.7009 59.9124 20.1314 61.3054 21.8436 61.8257C23.4614 62.3183 25.1041 61.934 25.6161 61.3915L30.7193 55.9151C31.7377 54.8148 32.0207 53.1235 31.456 51.5057C30.8539 49.788 29.4234 48.4005 27.7112 47.8857C26.1364 47.3724 24.3938 47.8288 23.435 48.8556Z" fill="#00628C"/>
<path d="M14.4429 39.1267L9.34806 44.6059C8.32965 45.7034 8.0466 47.3864 8.61131 48.9987C9.20515 50.7247 10.644 52.1122 12.3561 52.6325C13.9739 53.1153 15.6139 52.7407 16.1204 52.1913L21.2291 46.7149V46.7093C22.2475 45.6257 22.5305 43.9399 21.9658 42.3221C21.3747 40.5961 19.9359 39.2086 18.2238 38.6938C16.9154 38.2429 15.3323 38.1652 14.4429 39.1267Z" fill="#00628C"/>
<path d="M80.5867 6.44971C77.2914 8.29228 72.7113 8.6225 68.2506 8.94301C64.8762 9.17333 61.395 9.41753 58.8934 10.3416L44.9839 15.4739C44.8895 15.5113 44.7938 15.5335 44.6939 15.5474C44.0224 15.6529 43.4008 15.7431 42.843 15.8208C39.4562 16.2981 39.0649 16.4437 38.675 17.4469C38.3198 18.3737 38.7097 19.7099 39.6726 20.8448C40.4579 21.7772 43.5312 24.6882 49.854 23.1911L57.7751 22.1449C62.2109 21.5733 65.767 24.4648 68.6072 26.7985L89.9091 43.8396L89.9258 43.8312C94.1368 42.0691 98.524 39.777 102.254 35.2843L80.5867 6.44971Z" fill="#00628C"/>
<path d="M51.2762 5.41472C50.0136 5.53126 48.5664 5.69082 47.0485 5.849C38.6529 6.74531 33.9979 7.09773 31.6294 6.65929L9.8335 35.0291C10.6355 35.7881 11.3001 36.5762 11.8356 37.4295C13.6574 35.5647 16.4102 34.8987 19.0908 35.709C21.7214 36.5026 23.9178 38.6352 24.8363 41.2811C25.2262 42.4008 25.3483 43.5496 25.2484 44.6499C26.3237 44.4987 27.4601 44.5611 28.5784 44.9024C31.2021 45.6905 33.4068 47.8286 34.3184 50.4746C34.7138 51.5887 34.8387 52.7348 34.7443 53.835C35.8196 53.6838 36.956 53.7476 38.0743 54.0959C40.6925 54.8895 42.8875 57.0221 43.806 59.6541C44.3832 61.3233 44.4054 63.041 43.9364 64.5811C44.2042 64.6324 44.4789 64.6976 44.7522 64.7836C47.1012 65.5121 49.0964 67.4421 49.9553 69.8216C50.7739 72.1248 50.4187 74.5446 49.0742 76.2817L52.9412 79.3744C53.8874 80.125 55.2666 80.2069 56.5541 79.5825C57.95 78.9054 59.0044 77.5304 59.3152 75.9917C59.4457 75.3493 59.4027 74.7263 59.2556 74.1491L54.3508 70.2253C53.6918 69.6967 53.5752 68.7213 54.09 68.0442C54.6103 67.3727 55.5649 67.2478 56.2281 67.7764L62.1249 72.5022C62.7104 72.9712 64.3879 73.096 65.9266 72.3718C67.5444 71.599 68.7668 70.0061 69.1053 68.2288C69.43 66.5485 68.9097 64.9196 67.7525 63.9872L62.419 59.7193C61.7544 59.1907 61.6379 58.2125 62.1582 57.5438C62.6729 56.8639 63.6331 56.739 64.2907 57.276L72.044 63.4766C73.2095 64.4035 74.8842 64.5311 76.4312 63.8096C78.0351 63.0424 79.2575 61.4523 79.6044 59.6555C79.9291 57.9753 79.4087 56.3519 78.2391 55.4112L70.4831 49.2189C69.8185 48.6847 69.7019 47.7093 70.2222 47.0267C70.7425 46.3579 71.6971 46.2414 72.3631 46.7686C72.3631 46.7686 84.1401 56.1854 84.1484 56.1854C84.7339 56.6461 86.403 56.7765 87.9348 56.0439C89.5554 55.2877 90.7694 53.6977 91.1219 51.9064C91.441 50.2234 90.9207 48.589 89.7566 47.6649L66.7064 29.2183C64.0618 27.0497 61.3299 24.8034 58.1567 25.2293L50.3951 26.2422C45.1629 27.4993 40.2277 26.2561 37.3736 22.8817C35.6531 20.8491 35.0676 18.3349 35.8404 16.3134C36.9241 13.5093 38.9997 13.2193 42.4254 12.7365C42.9374 12.6712 43.4882 12.5908 44.0946 12.495L57.8612 7.41685C58.7561 7.08385 59.7467 6.85353 60.7721 6.64957C57.2326 5.28013 54.6672 5.19827 51.2762 5.41472Z" fill="#00628C"/>
<path d="M21.3594 0.0383896C18.8522 -0.151695 16.5628 1.73805 13.2676 6.02953L4.84001 17.0073C1.79171 20.9672 0.649813 23.4299 0.902335 25.5167C1.10491 27.2316 2.29814 28.9146 3.48166 29.8637L7.479 33.0563L29.1861 4.803L26.3765 2.55389C24.4451 1.01379 22.8634 0.154938 21.3594 0.0383896Z" fill="#00628C"/>
<path d="M90.9664 0.00929768C89.4624 0.103646 87.8668 0.944462 85.9202 2.46237L83.08 4.66569L104.486 33.1493L107.253 30.9973C109.646 29.1409 110.867 27.48 111.09 25.7665C111.367 23.6853 110.261 21.2031 107.261 17.1919L98.9708 6.10867C95.7407 1.77279 93.4805 -0.15165 90.9664 0.00929768Z" fill="#00628C"/>
</svg>
