<svg width="18" height="18" viewBox="0 0 18 18" fill="none" xmlns="http://www.w3.org/2000/svg">
<circle cx="9" cy="9" r="9" fill="#1F2223"/>
<path fill-rule="evenodd" clip-rule="evenodd" d="M9.39704 13.2971C10.3966 12.7471 12.9375 11.0881 12.9375 8.4375C12.9375 6.26288 11.1746 4.5 9 4.5C6.82538 4.5 5.0625 6.26288 5.0625 8.4375C5.0625 11.0881 7.60343 12.7471 8.60296 13.2971C8.85252 13.4345 9.14748 13.4345 9.39704 13.2971ZM9 10.125C9.93198 10.125 10.6875 9.36948 10.6875 8.4375C10.6875 7.50552 9.93198 6.75 9 6.75C8.06802 6.75 7.3125 7.50552 7.3125 8.4375C7.3125 9.36948 8.06802 10.125 9 10.125Z" fill="white"/>
</svg>
