<svg width="35" height="30" viewBox="0 0 35 30" fill="none" xmlns="http://www.w3.org/2000/svg">
<path d="M32.0251 26.6694H30.3188L31.172 28.8707L32.0251 26.6694Z" fill="#00628C"/>
<path d="M30.0781 24.5477H32.2656V25.6086H30.0781V24.5477Z" fill="#00628C"/>
<path d="M30.0781 22.426H32.2656V23.4869H30.0781V22.426Z" fill="#00628C"/>
<path d="M32.2656 4.92191C32.2656 4.78123 32.208 4.64631 32.1054 4.54684C32.0029 4.44736 31.8638 4.39148 31.7188 4.39148H30.625C30.48 4.39148 30.3409 4.44736 30.2383 4.54684C30.1357 4.64631 30.0781 4.78123 30.0781 4.92191V6.51319H32.2656V4.92191Z" fill="#00628C"/>
<path d="M30.0781 7.5741H32.2656V19.2435H30.0781V7.5741Z" fill="#00628C"/>
<path d="M30.0781 20.3043H32.2656V21.3652H30.0781V20.3043Z" fill="#00628C"/>
<path d="M6.5625 20.8347C6.5625 20.9754 6.62012 21.1103 6.72268 21.2098C6.82524 21.3093 6.96433 21.3651 7.10938 21.3651H20.2344C20.3794 21.3651 20.5185 21.3093 20.6211 21.2098C20.7236 21.1103 20.7812 20.9754 20.7812 20.8347V12.8783H6.5625V20.8347ZM17.5 14.4696H18.0469C18.1919 14.4696 18.331 14.5255 18.4336 14.6249C18.5361 14.7244 18.5938 14.8593 18.5938 15C18.5938 15.1407 18.5361 15.2756 18.4336 15.3751C18.331 15.4746 18.1919 15.5304 18.0469 15.5304H17.5C17.355 15.5304 17.2159 15.4746 17.1133 15.3751C17.0107 15.2756 16.9531 15.1407 16.9531 15C16.9531 14.8593 17.0107 14.7244 17.1133 14.6249C17.2159 14.5255 17.355 14.4696 17.5 14.4696ZM17.5 16.5913H18.0469C18.1919 16.5913 18.331 16.6472 18.4336 16.7466C18.5361 16.8461 18.5938 16.981 18.5938 17.1217C18.5938 17.2624 18.5361 17.3973 18.4336 17.4968C18.331 17.5963 18.1919 17.6521 18.0469 17.6521H17.5C17.355 17.6521 17.2159 17.5963 17.1133 17.4968C17.0107 17.3973 16.9531 17.2624 16.9531 17.1217C16.9531 16.981 17.0107 16.8461 17.1133 16.7466C17.2159 16.6472 17.355 16.5913 17.5 16.5913ZM17.5 18.713H18.0469C18.1919 18.713 18.331 18.7689 18.4336 18.8684C18.5361 18.9678 18.5938 19.1027 18.5938 19.2434C18.5938 19.3841 18.5361 19.519 18.4336 19.6185C18.331 19.718 18.1919 19.7739 18.0469 19.7739H17.5C17.355 19.7739 17.2159 19.718 17.1133 19.6185C17.0107 19.519 16.9531 19.3841 16.9531 19.2434C16.9531 19.1027 17.0107 18.9678 17.1133 18.8684C17.2159 18.7689 17.355 18.713 17.5 18.713ZM14.7656 14.4696H15.3125C15.4575 14.4696 15.5966 14.5255 15.6992 14.6249C15.8018 14.7244 15.8594 14.8593 15.8594 15C15.8594 15.1407 15.8018 15.2756 15.6992 15.3751C15.5966 15.4746 15.4575 15.5304 15.3125 15.5304H14.7656C14.6206 15.5304 14.4815 15.4746 14.3789 15.3751C14.2764 15.2756 14.2188 15.1407 14.2188 15C14.2188 14.8593 14.2764 14.7244 14.3789 14.6249C14.4815 14.5255 14.6206 14.4696 14.7656 14.4696ZM14.7656 16.5913H15.3125C15.4575 16.5913 15.5966 16.6472 15.6992 16.7466C15.8018 16.8461 15.8594 16.981 15.8594 17.1217C15.8594 17.2624 15.8018 17.3973 15.6992 17.4968C15.5966 17.5963 15.4575 17.6521 15.3125 17.6521H14.7656C14.6206 17.6521 14.4815 17.5963 14.3789 17.4968C14.2764 17.3973 14.2188 17.2624 14.2188 17.1217C14.2188 16.981 14.2764 16.8461 14.3789 16.7466C14.4815 16.6472 14.6206 16.5913 14.7656 16.5913ZM14.7656 18.713H15.3125C15.4575 18.713 15.5966 18.7689 15.6992 18.8684C15.8018 18.9678 15.8594 19.1027 15.8594 19.2434C15.8594 19.3841 15.8018 19.519 15.6992 19.6185C15.5966 19.718 15.4575 19.7739 15.3125 19.7739H14.7656C14.6206 19.7739 14.4815 19.718 14.3789 19.6185C14.2764 19.519 14.2188 19.3841 14.2188 19.2434C14.2188 19.1027 14.2764 18.9678 14.3789 18.8684C14.4815 18.7689 14.6206 18.713 14.7656 18.713ZM12.0312 14.4696H12.5781C12.7232 14.4696 12.8623 14.5255 12.9648 14.6249C13.0674 14.7244 13.125 14.8593 13.125 15C13.125 15.1407 13.0674 15.2756 12.9648 15.3751C12.8623 15.4746 12.7232 15.5304 12.5781 15.5304H12.0312C11.8862 15.5304 11.7471 15.4746 11.6446 15.3751C11.542 15.2756 11.4844 15.1407 11.4844 15C11.4844 14.8593 11.542 14.7244 11.6446 14.6249C11.7471 14.5255 11.8862 14.4696 12.0312 14.4696ZM12.0312 16.5913H12.5781C12.7232 16.5913 12.8623 16.6472 12.9648 16.7466C13.0674 16.8461 13.125 16.981 13.125 17.1217C13.125 17.2624 13.0674 17.3973 12.9648 17.4968C12.8623 17.5963 12.7232 17.6521 12.5781 17.6521H12.0312C11.8862 17.6521 11.7471 17.5963 11.6446 17.4968C11.542 17.3973 11.4844 17.2624 11.4844 17.1217C11.4844 16.981 11.542 16.8461 11.6446 16.7466C11.7471 16.6472 11.8862 16.5913 12.0312 16.5913ZM12.0312 18.713H12.5781C12.7232 18.713 12.8623 18.7689 12.9648 18.8684C13.0674 18.9678 13.125 19.1027 13.125 19.2434C13.125 19.3841 13.0674 19.519 12.9648 19.6185C12.8623 19.718 12.7232 19.7739 12.5781 19.7739H12.0312C11.8862 19.7739 11.7471 19.718 11.6446 19.6185C11.542 19.519 11.4844 19.3841 11.4844 19.2434C11.4844 19.1027 11.542 18.9678 11.6446 18.8684C11.7471 18.7689 11.8862 18.713 12.0312 18.713ZM9.29688 14.4696H9.84375C9.98879 14.4696 10.1279 14.5255 10.2304 14.6249C10.333 14.7244 10.3906 14.8593 10.3906 15C10.3906 15.1407 10.333 15.2756 10.2304 15.3751C10.1279 15.4746 9.98879 15.5304 9.84375 15.5304H9.29688C9.15183 15.5304 9.01273 15.4746 8.91018 15.3751C8.80762 15.2756 8.75 15.1407 8.75 15C8.75 14.8593 8.80762 14.7244 8.91018 14.6249C9.01273 14.5255 9.15183 14.4696 9.29688 14.4696ZM9.29688 16.5913H9.84375C9.98879 16.5913 10.1279 16.6472 10.2304 16.7466C10.333 16.8461 10.3906 16.981 10.3906 17.1217C10.3906 17.2624 10.333 17.3973 10.2304 17.4968C10.1279 17.5963 9.98879 17.6521 9.84375 17.6521H9.29688C9.15183 17.6521 9.01273 17.5963 8.91018 17.4968C8.80762 17.3973 8.75 17.2624 8.75 17.1217C8.75 16.981 8.80762 16.8461 8.91018 16.7466C9.01273 16.6472 9.15183 16.5913 9.29688 16.5913ZM9.29688 18.713H9.84375C9.98879 18.713 10.1279 18.7689 10.2304 18.8684C10.333 18.9678 10.3906 19.1027 10.3906 19.2434C10.3906 19.3841 10.333 19.519 10.2304 19.6185C10.1279 19.718 9.98879 19.7739 9.84375 19.7739H9.29688C9.15183 19.7739 9.01273 19.718 8.91018 19.6185C8.80762 19.519 8.75 19.3841 8.75 19.2434C8.75 19.1027 8.80762 18.9678 8.91018 18.8684C9.01273 18.7689 9.15183 18.713 9.29688 18.713Z" fill="#00628C"/>
<path d="M25.1562 4.39145C25.155 3.96981 24.9817 3.56579 24.6743 3.26764C24.3669 2.96949 23.9503 2.80143 23.5156 2.80017H19.1406V3.86103H23.5156C23.6607 3.86103 23.7998 3.91691 23.9023 4.01638C24.0049 4.11586 24.0625 4.25078 24.0625 4.39145V24.0173C24.0614 24.1579 24.0046 24.2927 23.9039 24.3939L19.5289 28.6373C19.4246 28.735 19.2856 28.7901 19.1406 28.7911H3.82812C3.68308 28.7911 3.54399 28.7352 3.44143 28.6358C3.33887 28.5363 3.28125 28.4014 3.28125 28.2607V4.39145C3.28125 4.25078 3.33887 4.11586 3.44143 4.01638C3.54399 3.91691 3.68308 3.86103 3.82812 3.86103H8.20312V2.80017H3.82812C3.3934 2.80143 2.97686 2.96949 2.66946 3.26764C2.36207 3.56579 2.1888 3.96981 2.1875 4.39145V28.2607C2.1888 28.6823 2.36207 29.0864 2.66946 29.3845C2.97686 29.6827 3.3934 29.8507 3.82812 29.852H23.5156C23.9503 29.8507 24.3669 29.6827 24.6743 29.3845C24.9817 29.0864 25.155 28.6823 25.1562 28.2607V4.39145Z" fill="#00628C"/>
<path d="M8.20312 9.96101V9.6958H7.10938C6.96433 9.6958 6.82524 9.75168 6.72268 9.85116C6.62012 9.95063 6.5625 10.0856 6.5625 10.2262V11.8175H20.7812V10.2262C20.7812 10.0856 20.7236 9.95063 20.6211 9.85116C20.5185 9.75168 20.3794 9.6958 20.2344 9.6958H19.1406V9.96101C19.1406 10.3127 18.9966 10.65 18.7402 10.8987C18.4838 11.1474 18.136 11.2871 17.7734 11.2871C17.4108 11.2871 17.0631 11.1474 16.8067 10.8987C16.5503 10.65 16.4062 10.3127 16.4062 9.96101V9.6958H10.9375V9.96101C10.9375 10.3127 10.7935 10.65 10.5371 10.8987C10.2807 11.1474 9.93291 11.2871 9.57031 11.2871C9.20771 11.2871 8.85996 11.1474 8.60356 10.8987C8.34717 10.65 8.20312 10.3127 8.20312 9.96101Z" fill="#00628C"/>
<path d="M12.0312 1.73935H9.29688V4.92192H18.0469V1.73935H15.3125C15.1675 1.73935 15.0284 1.68347 14.9258 1.584C14.8232 1.48452 14.7656 1.3496 14.7656 1.20893C14.7656 0.92757 14.6504 0.657738 14.4453 0.458789C14.2402 0.25984 13.962 0.148071 13.6719 0.148071C13.3818 0.148071 13.1036 0.25984 12.8985 0.458789C12.6934 0.657738 12.5781 0.92757 12.5781 1.20893C12.5781 1.3496 12.5205 1.48452 12.4179 1.584C12.3154 1.68347 12.1763 1.73935 12.0312 1.73935Z" fill="#00628C"/>
<path d="M17.7734 10.2262C17.846 10.2262 17.9155 10.1983 17.9668 10.1485C18.0181 10.0988 18.0469 10.0313 18.0469 9.96099V8.36971C18.0469 8.29937 18.0181 8.23191 17.9668 8.18217C17.9155 8.13243 17.846 8.10449 17.7734 8.10449C17.7009 8.10449 17.6314 8.13243 17.5801 8.18217C17.5288 8.23191 17.5 8.29937 17.5 8.36971V9.96099C17.5 10.0313 17.5288 10.0988 17.5801 10.1485C17.6314 10.1983 17.7009 10.2262 17.7734 10.2262Z" fill="#00628C"/>
<path d="M8.20312 5.4523V4.92188H4.375V27.7303H18.5938V24.5477C18.5946 24.2666 18.7101 23.9973 18.9151 23.7985C19.12 23.5997 19.3977 23.4877 19.6875 23.4868H22.9688V4.92188H19.1406V5.4523C19.1406 5.59298 19.083 5.7279 18.9804 5.82737C18.8779 5.92685 18.7388 5.98273 18.5938 5.98273H8.75C8.60496 5.98273 8.46586 5.92685 8.3633 5.82737C8.26074 5.7279 8.20312 5.59298 8.20312 5.4523ZM10.9375 8.36965V8.63487H16.4062V8.36965C16.4062 8.01796 16.5503 7.68067 16.8067 7.43198C17.0631 7.1833 17.4108 7.04359 17.7734 7.04359C18.136 7.04359 18.4838 7.1833 18.7402 7.43198C18.9966 7.68067 19.1406 8.01796 19.1406 8.36965V8.63487H20.2344C20.6691 8.63613 21.0856 8.80418 21.393 9.10234C21.7004 9.40049 21.8737 9.8045 21.875 10.2262V20.8347C21.8737 21.2564 21.7004 21.6604 21.393 21.9585C21.0856 22.2567 20.6691 22.4247 20.2344 22.426H7.10938C6.67465 22.4247 6.25811 22.2567 5.95071 21.9585C5.64332 21.6604 5.47005 21.2564 5.46875 20.8347V10.2262C5.47005 9.8045 5.64332 9.40049 5.95071 9.10234C6.25811 8.80418 6.67465 8.63613 7.10938 8.63487H8.20312V8.36965C8.20312 8.01796 8.34717 7.68067 8.60356 7.43198C8.85996 7.1833 9.20771 7.04359 9.57031 7.04359C9.93291 7.04359 10.2807 7.1833 10.5371 7.43198C10.7935 7.68067 10.9375 8.01796 10.9375 8.36965Z" fill="#00628C"/>
<path d="M19.6875 26.9824L22.1977 24.5477H19.6875V26.9824Z" fill="#00628C"/>
<path d="M9.57031 10.2262C9.64283 10.2262 9.71238 10.1983 9.76366 10.1485C9.81494 10.0988 9.84375 10.0313 9.84375 9.96099V8.36971C9.84375 8.29937 9.81494 8.23191 9.76366 8.18217C9.71238 8.13243 9.64283 8.10449 9.57031 8.10449C9.49779 8.10449 9.42824 8.13243 9.37696 8.18217C9.32568 8.23191 9.29688 8.29937 9.29688 8.36971V9.96099C9.29688 10.0313 9.32568 10.0988 9.37696 10.1485C9.42824 10.1983 9.49779 10.2262 9.57031 10.2262Z" fill="#00628C"/>
<path d="M30.0781 6.51318V7.57404H28.9844V12.3479C28.9844 12.4886 28.9268 12.6235 28.8242 12.723C28.7216 12.8224 28.5825 12.8783 28.4375 12.8783C28.2925 12.8783 28.1534 12.8224 28.0508 12.723C27.9482 12.6235 27.8906 12.4886 27.8906 12.3479V7.57404C27.8906 7.29268 28.0059 7.02285 28.211 6.8239C28.4161 6.62495 28.6943 6.51318 28.9844 6.51318H30.0781Z" fill="#00628C"/>
</svg>
