<svg width="81" height="80" viewBox="0 0 81 80" fill="none" xmlns="http://www.w3.org/2000/svg">
<path d="M15.5613 13.6066H43.4586C44.7883 13.6066 45.8727 12.5351 45.8727 11.2054V6.6871C45.8727 5.35738 44.7883 4.28595 43.4715 4.28595H39.6891L39.0694 2.38821C38.6047 0.955289 37.275 0 35.7775 0H23.2424C21.7449 0 20.4152 0.955289 19.9505 2.38823L19.3308 4.28596H15.5613C14.2316 4.28596 13.1601 5.37032 13.1601 6.68711V11.2054C13.1601 12.5221 14.2316 13.6066 15.5613 13.6066ZM22.6098 6.86786H36.41C37.133 6.86786 37.701 7.43579 37.701 8.1588C37.701 8.86881 37.133 9.44975 36.41 9.44975H22.6098C21.8998 9.44975 21.3188 8.86881 21.3188 8.1588C21.3188 7.43579 21.8998 6.86786 22.6098 6.86786Z" fill="#00628C"/>
<path d="M51.9658 70.5634C51.656 70.6924 51.3333 70.7828 51.0105 70.8345C50.9073 70.8732 50.7782 70.8861 50.662 70.8861H8.37057C7.66057 70.8861 7.07963 70.3181 7.07963 69.5952C7.07963 68.8852 7.66057 68.3042 8.37057 68.3042H46.6471C46.4406 67.775 46.3502 67.194 46.389 66.6002L46.8408 60.0938C46.8537 59.926 46.8667 59.7581 46.8924 59.5903H8.37057C7.66057 59.5903 7.07963 59.0094 7.07963 58.2994C7.07963 57.5894 7.66057 57.0084 8.37057 57.0084H47.3572C47.8606 55.1365 48.6868 53.3679 49.81 51.7801L58.6142 39.3741V15.4786C58.6142 12.0705 55.8516 9.3208 52.4564 9.3208H48.4545V11.2056C48.4545 13.9553 46.2082 16.1887 43.4714 16.1887H15.5612C12.8114 16.1887 10.5652 13.9553 10.5652 11.2056V9.3208H6.57613C3.18094 9.3208 0.431206 12.0705 0.431206 15.4786V73.8553C0.431206 77.2505 3.18094 80.0002 6.57613 80.0002H52.4564C55.8516 80.0002 58.6142 77.2505 58.6142 73.8553V67.6975C58.4077 67.8007 58.1882 67.904 57.9688 67.9944L51.9658 70.5634ZM34.1121 23.0952H50.662C51.372 23.0952 51.953 23.6761 51.953 24.3861C51.953 25.1091 51.372 25.6771 50.662 25.6771H34.1121C33.4021 25.6771 32.8211 25.1091 32.8211 24.3861C32.8211 23.6761 33.4021 23.0952 34.1121 23.0952ZM34.1121 34.4039H50.662C51.372 34.4039 51.953 34.9849 51.953 35.6949C51.953 36.4049 51.372 36.9858 50.662 36.9858H34.1121C33.4021 36.9858 32.8211 36.4049 32.8211 35.6949C32.8211 34.9849 33.4021 34.4039 34.1121 34.4039ZM17.1102 20.4101C19.5115 20.4101 21.4608 22.3594 21.4608 24.7606C21.4608 27.1876 19.5115 29.1369 17.1102 29.1369C14.7091 29.1369 12.7597 27.1876 12.7597 24.7606C12.7597 22.3594 14.7091 20.4101 17.1102 20.4101ZM8.83529 36.3403C9.8035 33.8488 11.6109 31.8737 13.8571 30.8926C14.8253 31.4218 15.9355 31.7188 17.1102 31.7188C18.285 31.7188 19.3952 31.4218 20.3634 30.8926C22.6097 31.8737 24.417 33.8488 25.3723 36.3403C25.6692 37.0891 25.0884 37.9024 24.275 37.9024H9.93257C9.13218 37.9024 8.55132 37.0891 8.83529 36.3403ZM8.37057 45.6997H48.0801C48.7901 45.6997 49.3711 46.2807 49.3711 46.9907C49.3711 47.7136 48.7901 48.2816 48.0801 48.2816H8.37057C7.66057 48.2816 7.07963 47.7136 7.07963 46.9907C7.07963 46.2807 7.66057 45.6997 8.37057 45.6997Z" fill="#00628C"/>
<path d="M51.5529 53.8198L62.3452 61.4752C62.5872 61.1891 65.7722 56.6726 76.7521 41.1814L65.934 33.5132C55.1553 48.7203 51.9023 53.276 51.5529 53.8198Z" fill="#00628C"/>
<path d="M49.4184 60.2671L48.9678 66.7774C48.8942 67.8417 49.9721 68.6071 50.9526 68.1869L56.9509 65.6158C58.2627 65.0536 59.456 64.2746 60.5239 63.348L50.3799 56.1519C49.8581 57.464 49.5168 58.8455 49.4184 60.2671Z" fill="#00628C"/>
<path d="M78.1258 27.7888H78.1257C75.1383 25.6695 70.9985 26.3733 68.8792 29.3608L67.4285 31.4058L78.2471 39.0804L79.6978 37.0354C81.8171 34.0479 81.1133 29.9081 78.1258 27.7888Z" fill="#00628C"/>
</svg>
