<svg width="30" height="30" viewBox="0 0 30 30" fill="none" xmlns="http://www.w3.org/2000/svg">
<path d="M5.60017 5.10247H15.9257C16.4178 5.10247 16.8192 4.70065 16.8192 4.20204V2.50767C16.8192 2.00902 16.4178 1.60723 15.9305 1.60723H14.5305L14.3011 0.895582C14.1291 0.358234 13.637 0 13.0827 0H8.44313C7.88889 0 7.39673 0.358234 7.22472 0.895587L6.99538 1.60724H5.60018C5.10802 1.60724 4.71143 2.01387 4.71143 2.50767V4.20204C4.71143 4.69581 5.10801 5.10247 5.60017 5.10247V5.10247ZM8.20901 2.57545H13.3168C13.5844 2.57545 13.7946 2.78843 13.7946 3.05956C13.7946 3.32581 13.5844 3.54366 13.3168 3.54366H8.20901C7.94622 3.54366 7.7312 3.32581 7.7312 3.05956C7.7312 2.78843 7.94622 2.57545 8.20901 2.57545V2.57545Z" fill="#00628C"/>
<path d="M19.0742 26.4613C18.9596 26.5097 18.8401 26.5435 18.7207 26.5629C18.6824 26.5774 18.6347 26.5823 18.5917 26.5823H2.93856C2.67576 26.5823 2.46074 26.3693 2.46074 26.0982C2.46074 25.8319 2.67576 25.6141 2.93856 25.6141H17.1057C17.0292 25.4156 16.9958 25.1977 17.0101 24.975L17.1773 22.5352C17.1821 22.4722 17.1869 22.4093 17.1964 22.3464H2.93856C2.67576 22.3464 2.46074 22.1285 2.46074 21.8622C2.46074 21.596 2.67576 21.3781 2.93856 21.3781H17.3685C17.5548 20.6762 17.8606 20.013 18.2763 19.4175L21.535 14.7653V5.80444C21.535 4.52639 20.5125 3.49524 19.2558 3.49524H17.7746V4.20204C17.7746 5.23319 16.9432 6.07069 15.9302 6.07069H5.59997C4.58223 6.07069 3.75084 5.2332 3.75084 4.20204V3.49524H2.27439C1.01774 3.49524 0 4.52639 0 5.80444V27.6957C0 28.9689 1.01774 30.0001 2.27439 30.0001H19.2558C20.5124 30.0001 21.535 28.9689 21.535 27.6957V25.3866C21.4585 25.4253 21.3773 25.464 21.2961 25.4979L19.0742 26.4613ZM12.4661 8.66065H18.5917C18.8545 8.66065 19.0695 8.8785 19.0695 9.14476C19.0695 9.41586 18.8545 9.62886 18.5917 9.62886H12.4661C12.2033 9.62886 11.9883 9.41586 11.9883 9.14476C11.9883 8.8785 12.2033 8.66065 12.4661 8.66065ZM12.4661 12.9014H18.5917C18.8545 12.9014 19.0695 13.1193 19.0695 13.3855C19.0695 13.6518 18.8545 13.8696 18.5917 13.8696H12.4661C12.2033 13.8696 11.9883 13.6518 11.9883 13.3855C11.9883 13.1193 12.2033 12.9014 12.4661 12.9014ZM6.17332 7.65373C7.06207 7.65373 7.78357 8.38473 7.78357 9.28517C7.78357 10.1953 7.06207 10.9263 6.17332 10.9263C5.28459 10.9263 4.56309 10.1953 4.56309 9.28517C4.5631 8.38473 5.2846 7.65373 6.17332 7.65373ZM3.11056 13.6276C3.46892 12.6933 4.13786 11.9526 4.96925 11.5847C5.32761 11.7831 5.73852 11.8945 6.17332 11.8945C6.60814 11.8945 7.01905 11.7831 7.37741 11.5847C8.2088 11.9526 8.87774 12.6933 9.23132 13.6276C9.34121 13.9084 9.12622 14.2134 8.8252 14.2134H3.51669C3.22045 14.2134 3.00545 13.9084 3.11056 13.6276ZM2.93856 17.1374H17.636C17.8988 17.1374 18.1139 17.3552 18.1139 17.6215C18.1139 17.8926 17.8988 18.1056 17.636 18.1056H2.93856C2.67576 18.1056 2.46074 17.8926 2.46074 17.6215C2.46074 17.3552 2.67576 17.1374 2.93856 17.1374Z" fill="#00628C"/>
<path d="M18.9214 20.1825L22.9159 23.0533C23.0055 22.946 24.1843 21.2523 28.2482 15.4431L24.2442 12.5675C20.2547 18.2702 19.0507 19.9786 18.9214 20.1825V20.1825Z" fill="#00628C"/>
<path d="M18.1317 22.6L17.9649 25.0414C17.9377 25.4405 18.3367 25.7275 18.6996 25.5699L20.9197 24.6057C21.4052 24.3949 21.8469 24.1028 22.2422 23.7553L18.4876 21.0568C18.2945 21.5488 18.1682 22.0669 18.1317 22.6V22.6Z" fill="#00628C"/>
<path d="M28.7562 10.4207H28.7562C27.6505 9.62595 26.1182 9.88987 25.3338 11.0102L24.7969 11.777L28.8011 14.655L29.338 13.8882C30.1224 12.7679 29.862 11.2154 28.7562 10.4207V10.4207Z" fill="#00628C"/>
</svg>
