<svg width="32" height="32" viewBox="0 0 32 32" fill="none" xmlns="http://www.w3.org/2000/svg">
<circle cx="16" cy="16" r="16" fill="#DC7840"/>
<g clip-path="url(#clip0_326_1174)">
<path d="M10.3568 17.0277C9.88165 17.9245 10.4212 18.3531 11.6522 19.0854C12.6987 19.7061 14.1444 19.9331 15.0731 20.0238C14.6925 20.3751 16.4367 18.7647 11.4134 23.4032C10.3483 24.3833 12.063 25.9558 13.1274 24.9965L16.0088 22.3286C17.1119 23.3474 18.1692 24.3238 18.8902 25.0002C19.9553 25.9632 21.6692 24.4041 20.6158 23.4069C20.5367 23.3347 16.7111 19.8118 16.9444 20.0276C17.8848 19.9368 19.3088 19.6964 20.3429 19.0891L20.3421 19.0884C21.5731 18.3524 22.1127 17.9245 21.6444 17.0277C21.3615 16.5187 20.5987 16.093 19.5832 16.829C19.5832 16.829 18.2119 17.8374 16.0003 17.8374C13.7879 17.8374 12.4173 16.829 12.4173 16.829C11.4026 16.0893 10.6367 16.5187 10.3568 17.0277Z" fill="white"/>
<path d="M15.999 16.4778C18.6952 16.4778 20.8967 14.4551 20.8967 11.9651C20.8967 9.46459 18.6952 7.44189 15.999 7.44189C13.3021 7.44189 11.1006 9.46459 11.1006 11.9651C11.1006 14.4551 13.3021 16.4778 15.999 16.4778ZM15.999 9.73324C17.3238 9.73324 18.4045 10.7312 18.4045 11.9651C18.4045 13.1885 17.3238 14.1864 15.999 14.1864C14.6742 14.1864 13.5936 13.1885 13.5936 11.9651C13.5928 10.7305 14.6735 9.73324 15.999 9.73324Z" fill="white"/>
</g>
<defs>
<clipPath id="clip0_326_1174">
<rect width="18.6047" height="17.8605" fill="white" transform="translate(6.69727 7.44189)"/>
</clipPath>
</defs>
</svg>
