<svg width="20" height="20" viewBox="0 0 20 20" fill="none" xmlns="http://www.w3.org/2000/svg">
<path d="M1.66602 9.99992L0.885147 9.37522L0.385391 9.99992L0.885147 10.6246L1.66602 9.99992ZM9.16602 10.9999C9.7183 10.9999 10.166 10.5522 10.166 9.99992C10.166 9.44763 9.7183 8.99992 9.16602 8.99992V10.9999ZM4.21848 5.20856L0.885147 9.37522L2.44688 10.6246L5.78022 6.45795L4.21848 5.20856ZM0.885147 10.6246L4.21848 14.7913L5.78022 13.5419L2.44688 9.37522L0.885147 10.6246ZM1.66602 10.9999H9.16602V8.99992H1.66602V10.9999Z" fill="#CCD2E3"/>
<path d="M8.33398 6.77669V6.61406C8.33398 5.1012 8.33398 4.34477 8.75165 3.80447C8.78814 3.75726 8.82673 3.71171 8.8673 3.66795C9.33158 3.16715 10.0777 3.04279 11.57 2.79408V2.79408C14.5994 2.28917 16.1141 2.03672 17.1437 2.81546C17.2319 2.88215 17.3163 2.95366 17.3966 3.02967C18.334 3.91721 18.334 5.45282 18.334 8.52404V11.4761C18.334 14.5473 18.334 16.083 17.3966 16.9705C17.3163 17.0465 17.2319 17.118 17.1437 17.1847C16.1141 17.9634 14.5989 17.7109 11.5685 17.2058V17.2058C10.0779 16.9574 9.33262 16.8332 8.86859 16.3336C8.82712 16.289 8.78771 16.2424 8.75049 16.1942C8.33398 15.6543 8.33398 14.899 8.33398 13.3884V13.3884" stroke="#CCD2E3" stroke-width="2"/>
</svg>
