<svg width="18" height="18" viewBox="0 0 18 18" fill="none" xmlns="http://www.w3.org/2000/svg">
<circle cx="9" cy="9" r="8" stroke="#CCD2E3" stroke-width="2"/>
<path d="M9.66212 10.9998H8.16209C8.09549 10.9998 8.03713 11.0249 7.98713 11.0748C7.93709 11.1249 7.91211 11.1831 7.91211 11.2498V12.7499C7.91211 12.8166 7.93717 12.875 7.98713 12.9249C8.03713 12.9748 8.09543 12.9999 8.16209 12.9999H9.66212C9.72872 12.9999 9.78723 12.9749 9.83703 12.9249C9.88716 12.875 9.91219 12.8166 9.91219 12.7499V11.2498C9.91219 11.1831 9.88723 11.1249 9.83703 11.0748C9.78723 11.0248 9.72872 10.9998 9.66212 10.9998Z" fill="#CCD2E3"/>
<path d="M11.6308 6.50943C11.4599 6.19467 11.2392 5.92918 10.9682 5.71245C10.6975 5.49582 10.3931 5.32281 10.0557 5.19369C9.71821 5.06462 9.38281 5 9.04941 5C7.7828 5 6.81615 5.55418 6.14942 6.66256C6.11613 6.71669 6.10464 6.77501 6.11503 6.83753C6.1255 6.89997 6.15779 6.95207 6.21195 6.99373L7.23698 7.77505C7.29114 7.80833 7.34325 7.82498 7.39327 7.82498C7.46829 7.82498 7.53282 7.7916 7.58705 7.72494C7.887 7.34999 8.10997 7.11041 8.25578 7.00618C8.43499 6.88539 8.65992 6.82501 8.93076 6.82501C9.18492 6.82501 9.40882 6.89169 9.60265 7.02492C9.79638 7.15829 9.89317 7.31247 9.89317 7.48746C9.89317 7.68322 9.84117 7.84162 9.73697 7.96246C9.63283 8.08326 9.45777 8.19987 9.21189 8.31242C8.88698 8.45823 8.58893 8.68431 8.31822 8.99056C8.04731 9.29685 7.91196 9.6229 7.91196 9.96871V10.2499C7.91196 10.3292 7.93372 10.4073 7.97755 10.4844C8.02133 10.5615 8.07441 10.6 8.13696 10.6H9.63697C9.70365 10.6 9.76193 10.5678 9.81197 10.503C9.86186 10.4386 9.88697 10.3709 9.88697 10.3001C9.88697 10.196 9.94426 10.0563 10.0588 9.88134C10.1734 9.70635 10.316 9.57079 10.487 9.47493C10.6494 9.3833 10.7764 9.30943 10.8681 9.25311C10.96 9.19693 11.0797 9.10611 11.2277 8.9812C11.3756 8.85615 11.4902 8.73218 11.5713 8.60931C11.6526 8.48641 11.7256 8.327 11.7901 8.13111C11.8548 7.93529 11.8871 7.72485 11.8871 7.49988C11.887 7.15404 11.8015 6.82385 11.6308 6.50943Z" fill="#CCD2E3"/>
</svg>
