<svg width="57" height="80" viewBox="0 0 57 80" fill="none" xmlns="http://www.w3.org/2000/svg">
<g clip-path="url(#clip0_2_45)">
<path d="M44.9364 28.4889L42.3006 26.9671L44.227 23.6303C44.6318 22.9275 44.7413 22.0928 44.5314 21.3094C44.3215 20.526 43.8094 19.8578 43.1075 19.4514L42.4095 19.0485L51.7832 2.81253C51.9083 2.59921 51.9899 2.36326 52.0234 2.11826C52.0569 1.87327 52.0416 1.62407 51.9784 1.385C51.9152 1.14594 51.8054 0.921745 51.6552 0.725318C51.505 0.52889 51.3174 0.364112 51.1032 0.240472C50.8891 0.116832 50.6526 0.0367709 50.4074 0.00489855C50.1622 -0.0269738 49.9131 -0.0100281 49.6744 0.0547602C49.4358 0.119548 49.2123 0.2309 49.0169 0.382403C48.8215 0.533906 48.658 0.722569 48.5357 0.937529L39.162 17.1735L38.4639 16.7705C37.761 16.3658 36.9264 16.2564 36.143 16.4663C35.3596 16.6762 34.6914 17.1883 34.2851 17.8902L32.3584 21.2271L29.7228 19.7053C29.2921 19.4567 28.7804 19.3893 28.3 19.518C27.8197 19.6467 27.4102 19.961 27.1615 20.3916L6.75903 55.7296L5.04169 54.738C4.82843 54.6149 4.59302 54.535 4.34888 54.5028C4.10475 54.4707 3.85667 54.487 3.61883 54.5507C3.38098 54.6145 3.15801 54.7244 2.96266 54.8743C2.76731 55.0242 2.6034 55.2112 2.48028 55.4244C2.35717 55.6377 2.27726 55.8731 2.24513 56.1172C2.213 56.3613 2.22926 56.6094 2.293 56.8473C2.35674 57.0851 2.4667 57.3081 2.61661 57.5034C2.76652 57.6988 2.95343 57.8627 3.16669 57.9858L9.86528 61.8532L4.95528 70.3577L2.81247 69.1207C2.3818 68.872 1.87 68.8046 1.38966 68.9333C0.909321 69.0621 0.499782 69.3763 0.251142 69.807C0.00250156 70.2376 -0.0648738 70.7495 0.0638376 71.2298C0.192549 71.7101 0.506804 72.1197 0.93747 72.3683L13.7211 79.7489C13.9343 79.8721 14.1697 79.952 14.4138 79.9841C14.658 80.0162 14.906 80 15.1439 79.9362C15.3817 79.8725 15.6047 79.7626 15.8 79.6127C15.9954 79.4628 16.1593 79.2758 16.2824 79.0626C16.4055 78.8494 16.4854 78.614 16.5175 78.3698C16.5497 78.1257 16.5334 77.8776 16.4697 77.6398C16.406 77.402 16.296 77.179 16.1461 76.9837C15.9962 76.7883 15.8093 76.6244 15.5961 76.5013L13.4537 75.2644L18.3639 66.7599L25.0625 70.6272C25.4931 70.8759 26.0049 70.9432 26.4853 70.8145C26.9656 70.6858 27.3752 70.3716 27.6238 69.9409C27.8724 69.5102 27.9398 68.9984 27.8111 68.5181C27.6824 68.0377 27.3681 67.6282 26.9375 67.3796L25.2204 66.3882L45.6226 31.0502C45.8713 30.6195 45.9386 30.1078 45.8099 29.6274C45.6812 29.1471 45.367 28.7376 44.9364 28.4889ZM40.3329 32.7122L38.8098 31.8328C38.3794 31.5881 37.8696 31.5236 37.3918 31.6533C36.914 31.783 36.5069 32.0965 36.2593 32.5253C36.0117 32.9541 35.9438 33.4634 36.0704 33.9421C36.1969 34.4207 36.5077 34.8299 36.9348 35.0803L38.4579 35.9597L36.4048 39.5157L33.4182 37.7914C32.9876 37.5428 32.4758 37.4754 31.9954 37.6041C31.5151 37.7328 31.1056 38.0471 30.8569 38.4778C30.6083 38.9084 30.5409 39.4202 30.6696 39.9006C30.7983 40.3809 31.1126 40.7905 31.5432 41.0391L34.5298 42.7633L32.4767 46.3196L30.9536 45.4402C30.7402 45.3139 30.5039 45.2312 30.2584 45.1968C30.0128 45.1625 29.7629 45.1772 29.5231 45.24C29.2833 45.3029 29.0583 45.4127 28.8612 45.5631C28.6641 45.7135 28.4988 45.9015 28.3748 46.1162C28.2508 46.3309 28.1707 46.5681 28.139 46.814C28.1072 47.0599 28.1246 47.3096 28.1901 47.5487C28.2555 47.7879 28.3678 48.0116 28.5203 48.2071C28.6728 48.4026 28.8625 48.5659 29.0786 48.6875L30.6018 49.5671L28.5487 53.1233L25.5625 51.3991C25.1318 51.1505 24.62 51.0831 24.1397 51.2118C23.6593 51.3405 23.2498 51.6548 23.0011 52.0854C22.7525 52.5161 22.6851 53.0279 22.8138 53.5082C22.9425 53.9886 23.2568 54.3981 23.6875 54.6468L26.674 56.3711L24.6209 59.9272L23.0976 59.0477C22.6669 58.799 22.1551 58.7317 21.6748 58.8604C21.1944 58.9891 20.7849 59.3034 20.5362 59.7341C20.2876 60.1648 20.2202 60.6766 20.3489 61.157C20.4777 61.6373 20.7919 62.0469 21.2226 62.2955L22.7459 63.1749L21.9731 64.5132L10.0067 57.6046L29.4715 23.8907L41.4375 30.7989L40.3329 32.7122Z" fill="#00628C"/>
</g>
<defs>
<clipPath id="clip0_2_45">
<rect width="57" height="80" fill="white"/>
</clipPath>
</defs>
</svg>
