<svg width="21" height="30" viewBox="0 0 21 30" fill="none" xmlns="http://www.w3.org/2000/svg">
<path d="M7.15091 12.7711C7.23674 12.8651 7.35686 12.9198 7.48356 12.9226H7.49332C7.61662 12.9226 7.73492 12.8734 7.82211 12.7852L9.83002 10.7615C10.0117 10.5784 10.0117 10.2817 9.83002 10.0986C9.64837 9.91553 9.3541 9.91552 9.17245 10.0986L7.5074 11.7766L6.94905 11.1641C6.77558 10.9736 6.48153 10.9608 6.29193 11.1362C6.10279 11.3113 6.09053 11.6079 6.26423 11.7985L7.15091 12.7711Z" fill="#00628C"/>
<path d="M14.2111 4.97812H13.881V2.78435C13.881 2.4 13.5741 2.08591 13.1881 2.08591H12.551V4.97812H11.6209V0.473414C11.6209 0.210914 11.4117 0 11.1513 0H4.78511C4.52933 0 4.31544 0.210914 4.31544 0.473414V4.97812H3.38539V2.08591H2.74831C2.36698 2.08591 2.0554 2.4 2.0554 2.78435V4.97812H1.89731C0.851003 4.97812 0 5.83123 0 6.88591V28.0922C4.65024e-06 29.1469 0.851003 30 1.89731 30H14.2111C15.2574 30 16.1038 29.1469 16.1038 28.0922V6.88591C16.1038 5.83122 15.2574 4.97812 14.2111 4.97812V4.97812ZM4.06896 27.2859H3.18078C2.66461 27.2859 2.24608 26.8641 2.24608 26.3437C2.24608 25.8234 2.66461 25.4015 3.18078 25.4015H4.06896C4.58514 25.4015 5.00367 25.8234 5.00367 26.3437C5.00367 26.8641 4.58513 27.2859 4.06896 27.2859ZM4.06896 23.4H3.18078C2.66461 23.4 2.24608 22.9781 2.24608 22.4578C2.24608 21.9375 2.66461 21.5156 3.18078 21.5156H4.06896C4.58514 21.5156 5.00367 21.9375 5.00367 22.4578C5.00367 22.9781 4.58513 23.4 4.06896 23.4ZM4.06896 19.5187H3.18078C2.66461 19.5187 2.24608 19.0969 2.24608 18.5765C2.24608 18.0562 2.66461 17.6344 3.18078 17.6344H4.06896C4.58514 17.6344 5.00367 18.0562 5.00367 18.5765C5.00367 19.0969 4.58513 19.5187 4.06896 19.5187V19.5187ZM8.496 27.2859H7.61244C7.09627 27.2859 6.67774 26.8641 6.67774 26.3437C6.67774 25.8234 7.09627 25.4015 7.61244 25.4015H8.496C9.01217 25.4015 9.4307 25.8234 9.4307 26.3437C9.4307 26.8641 9.01217 27.2859 8.496 27.2859ZM8.496 23.4H7.61244C7.09627 23.4 6.67774 22.9781 6.67774 22.4578C6.67774 21.9375 7.09627 21.5156 7.61244 21.5156H8.496C9.01217 21.5156 9.4307 21.9375 9.4307 22.4578C9.4307 22.9781 9.01217 23.4 8.496 23.4ZM8.496 19.5187H7.61244C7.09627 19.5187 6.67774 19.0969 6.67774 18.5765C6.67774 18.0562 7.09627 17.6344 7.61244 17.6344H8.496C9.01217 17.6344 9.4307 18.0562 9.4307 18.5765C9.4307 19.0969 9.01217 19.5187 8.496 19.5187V19.5187ZM12.9277 27.2859H12.0395C11.5233 27.2859 11.1048 26.8641 11.1048 26.3437C11.1048 25.8234 11.5233 25.4015 12.0395 25.4015H12.9277C13.4439 25.4015 13.8624 25.8234 13.8624 26.3437C13.8624 26.8641 13.4439 27.2859 12.9277 27.2859ZM12.9277 23.4H12.0395C11.5233 23.4 11.1048 22.9781 11.1048 22.4578C11.1048 21.9375 11.5233 21.5156 12.0395 21.5156H12.9277C13.4439 21.5156 13.8624 21.9375 13.8624 22.4578C13.8624 22.9781 13.4439 23.4 12.9277 23.4ZM12.9277 19.5187H12.0395C11.5233 19.5187 11.1048 19.0969 11.1048 18.5765C11.1048 18.0562 11.5233 17.6344 12.0395 17.6344H12.9277C13.4439 17.6344 13.8624 18.0562 13.8624 18.5765C13.8624 19.0969 13.4439 19.5187 12.9277 19.5187V19.5187ZM13.8624 14.2969C13.8624 14.7891 13.4624 15.1922 12.9742 15.1922H3.13426C2.64599 15.1922 2.24608 14.7891 2.24608 14.2969V8.58748C2.24608 8.0906 2.646 7.69218 3.13426 7.69218H12.9742C13.4625 7.69218 13.8624 8.09061 13.8624 8.58748V14.2969Z" fill="#00628C"/>
<path d="M19.0147 10.3218H17.0337V24.6562H19.0147C19.6285 24.6562 20.1261 24.1546 20.1261 23.5358V11.4421C20.1261 10.8233 19.6285 10.3218 19.0147 10.3218V10.3218Z" fill="#00628C"/>
</svg>
