<svg width="18" height="18" viewBox="0 0 18 18" fill="none" xmlns="http://www.w3.org/2000/svg">
<circle cx="9" cy="9" r="9" fill="#1F2223"/>
<path d="M5.48855 5.00972L5.83352 4.66475C6.05319 4.44508 6.40934 4.44508 6.62901 4.66475L8.08352 6.11926C8.30318 6.33893 8.30318 6.69508 8.08351 6.91475L7.07528 7.92298C6.90716 8.09111 6.86548 8.34795 6.97181 8.5606C7.58649 9.78996 8.58331 10.7868 9.81266 11.4015C10.0253 11.5078 10.2822 11.4661 10.4503 11.298L11.4585 10.2898C11.6782 10.0701 12.0343 10.0701 12.254 10.2898L13.7085 11.7443C13.9282 11.9639 13.9282 12.3201 13.7085 12.5398L13.3636 12.8847C12.1759 14.0724 10.2957 14.206 8.95206 13.1982L8.27233 12.6884C7.2916 11.9529 6.42039 11.0817 5.68483 10.1009L5.17504 9.4212C4.16729 8.07755 4.30091 6.19735 5.48855 5.00972Z" fill="white"/>
</svg>
