<svg width="32" height="32" viewBox="0 0 32 32" fill="none" xmlns="http://www.w3.org/2000/svg">
<circle cx="16" cy="16" r="16" fill="#74A8D7"/>
<path d="M23.9532 9.63809C23.881 9.44102 23.8088 9.39176 23.7125 9.36712C23.4477 9.26858 23.0386 9.41641 23.0386 9.41641C23.0386 9.41641 7.85145 15.0084 6.98499 15.6242C6.79244 15.7474 6.7443 15.8459 6.69616 15.9198C6.55175 16.3633 7.00905 16.5604 7.00905 16.5604L10.9322 17.866C10.9322 17.866 11.0766 17.8906 11.1247 17.866C12.0153 17.2994 20.0782 12.0769 20.5355 11.9045C20.6077 11.8798 20.6558 11.9045 20.6558 11.9537C20.4633 12.6189 13.4594 18.9991 13.4594 18.9991C13.4594 18.9991 13.4353 19.0238 13.4112 19.0731L13.0502 23.0392C13.0502 23.0392 12.9058 24.2463 14.0851 23.0392C14.9275 22.177 15.7459 21.4626 16.131 21.1177C17.4788 22.0785 18.9229 23.1131 19.5487 23.6797C19.8615 23.9506 20.1263 23.9999 20.3429 23.9999C20.9446 23.9753 21.1131 23.3101 21.1131 23.3101C21.1131 23.3101 23.881 11.9045 23.9772 10.3771C23.9772 10.2293 24.0013 10.1308 24.0013 10.0323C23.9772 9.85983 23.9772 9.712 23.9532 9.63809Z" fill="white"/>
</svg>
