<svg width="32" height="32" viewBox="0 0 32 32" fill="none" xmlns="http://www.w3.org/2000/svg">
<circle cx="16" cy="16" r="16" fill="#4CAAE7"/>
<path d="M13.4323 23.3584C19.951 23.3584 23.5067 17.9657 23.5067 13.284C23.5067 13.126 23.5067 12.9877 23.487 12.8297C24.1784 12.3358 24.771 11.7037 25.2451 10.9926C24.6129 11.2691 23.9216 11.4667 23.2104 11.5457C23.9413 11.1111 24.4944 10.4197 24.771 9.59005C24.0796 10.0049 23.3289 10.2814 22.519 10.4592C21.8672 9.76784 20.9585 9.33325 19.9313 9.33325C17.9757 9.33325 16.3954 10.9136 16.3954 12.8692C16.3954 13.1457 16.4349 13.4223 16.4941 13.6791C13.5508 13.5408 10.9433 12.1185 9.20498 9.98513C8.90867 10.4987 8.73089 11.1111 8.73089 11.763C8.73089 12.9877 9.36301 14.0742 10.3112 14.7063C9.73834 14.6865 9.18522 14.5285 8.71113 14.2717C8.71113 14.2915 8.71113 14.2915 8.71113 14.3112C8.71113 16.0298 9.93586 17.4521 11.5557 17.7879C11.2594 17.8669 10.9433 17.9064 10.6273 17.9064C10.3902 17.9064 10.1729 17.8866 9.95562 17.8471C10.41 19.2497 11.7137 20.2769 13.2545 20.2966C12.0495 21.2448 10.5087 21.8177 8.84941 21.8177C8.57286 21.8177 8.27655 21.7979 8 21.7781C9.56055 22.7856 11.4371 23.3584 13.4323 23.3584Z" fill="white"/>
</svg>
