<svg width="12" height="12" viewBox="0 0 12 12" fill="none" xmlns="http://www.w3.org/2000/svg">
<path d="M7.30206 1.38021C6.53176 1.29253 5.754 1.29253 4.9837 1.38021L4.18604 1.471C4.06805 1.48443 3.97579 1.57901 3.96529 1.6973L3.90398 2.38819C3.80089 3.5498 3.80089 4.71826 3.90398 5.87988L3.96529 6.57077C3.97674 6.69977 4.0848 6.79867 4.21431 6.79867H5.25002V10.4999C5.25002 10.6061 5.31713 10.7007 5.41737 10.7358C5.5176 10.7709 5.62908 10.7389 5.69536 10.6559L5.89071 10.4113C7.05542 8.95308 7.98285 7.32027 8.63885 5.57308L8.73407 5.31947C8.7629 5.24269 8.75224 5.15665 8.70553 5.08924C8.65883 5.02182 8.58204 4.98159 8.50002 4.98159H7.14348L8.30622 1.80534C8.33257 1.73335 8.32444 1.65325 8.28416 1.58803C8.24387 1.52281 8.17589 1.47967 8.09973 1.471L7.30206 1.38021Z" fill="#EC0101"/>
</svg>
