<svg width="80" height="81" viewBox="0 0 80 81" fill="none" xmlns="http://www.w3.org/2000/svg">
<path d="M17.4999 15.3195H37.4997V20.3194H17.4999V15.3195ZM17.4999 57.8191H27.4998V52.8192H17.4999V57.8191ZM17.4999 32.8193H39.9997V30.3194V27.8194H17.4999V32.8193ZM17.4999 45.3192H29.9998V40.3193H17.4999V45.3192ZM39.9997 72.819V75.319V77.819H7.49994C3.36497 77.819 0 74.454 0 70.3191V15.3195C0 11.1845 3.36497 7.81952 7.49994 7.81952V5.31954C7.49994 2.55706 9.73993 0.31958 12.4999 0.31958H45.4297C46.7547 0.31958 48.0271 0.847077 48.9646 1.78457L66.037 18.8544C66.972 19.7919 67.4995 21.0644 67.4995 22.3894V30.3194H62.4995V25.3194H49.9996C45.8647 25.3194 42.4997 21.9544 42.4997 17.8194V5.31954H12.4999V65.3191H32.4998V70.3191H12.4999C9.73993 70.3191 7.49994 68.0816 7.49994 65.3191V12.8195C6.11995 12.8195 4.99996 13.942 4.99996 15.3195V70.3191C4.99996 71.699 6.11995 72.819 7.49994 72.819H39.9997ZM47.4996 7.38953V17.8194C47.4996 19.1969 48.6196 20.3194 49.9996 20.3194H60.4295L47.4996 7.38953ZM44.9997 52.8192C44.9997 48.6842 48.3646 45.3192 52.4996 45.3192C53.8821 45.3192 54.9996 44.1992 54.9996 42.8193C54.9996 41.4393 53.8821 40.3193 52.4996 40.3193C45.6072 40.3193 39.9997 45.9267 39.9997 52.8192C39.9997 54.2017 41.1172 55.3192 42.4997 55.3192C43.8822 55.3192 44.9997 54.2017 44.9997 52.8192ZM79.2669 76.0515C80.2444 77.029 80.2444 78.609 79.2669 79.5865C78.7794 80.074 78.1394 80.319 77.4994 80.319C76.8594 80.319 76.2194 80.074 75.7319 79.5865L64.742 68.5991C61.3545 71.234 57.1146 72.819 52.4996 72.819C41.4722 72.819 32.4998 63.8466 32.4998 52.8192C32.4998 41.7918 41.4722 32.8193 52.4996 32.8193C63.527 32.8193 72.4995 41.7918 72.4995 52.8192C72.4995 57.4342 70.9145 61.6741 68.2795 65.0641L79.2669 76.0515ZM67.4995 52.8192C67.4995 44.5492 60.7695 37.8193 52.4996 37.8193C44.2297 37.8193 37.4997 44.5492 37.4997 52.8192C37.4997 61.0891 44.2297 67.8191 52.4996 67.8191C60.7695 67.8191 67.4995 61.0891 67.4995 52.8192Z" fill="#00628C"/>
</svg>
