<svg width="32" height="32" viewBox="0 0 32 32" fill="none" xmlns="http://www.w3.org/2000/svg">
<circle cx="16" cy="16" r="16" fill="#5480BD"/>
<path fill-rule="evenodd" clip-rule="evenodd" d="M24.4206 12.4366C24.538 12.0457 24.4206 11.7583 23.8625 11.7583H22.0172C21.5479 11.7583 21.3317 12.0065 21.2144 12.2803C21.2144 12.2803 20.2759 14.5676 18.9464 16.0535C18.5163 16.4836 18.3208 16.6203 18.0862 16.6203C17.9689 16.6203 17.7991 16.4836 17.7991 16.0926V12.4366C17.7991 11.9674 17.663 11.7583 17.2719 11.7583H14.372C14.0788 11.7583 13.9024 11.9761 13.9024 12.1825C13.9024 12.6273 14.567 12.7299 14.6356 13.9811V16.6987C14.6356 17.2945 14.528 17.4026 14.2934 17.4026C13.6678 17.4026 12.1462 15.1048 11.2435 12.4758C11.0666 11.9647 10.8892 11.7583 10.4176 11.7583H8.57216C8.0449 11.7583 7.93945 12.0065 7.93945 12.2803C7.93945 12.769 8.56517 15.1934 10.8525 18.3996C12.3776 20.589 14.5259 21.7761 16.481 21.7761C17.6541 21.7761 17.7991 21.5125 17.7991 21.0584V19.4035C17.7991 18.8762 17.9102 18.7711 18.2816 18.7711C18.5555 18.7711 19.0246 18.9079 20.1196 19.9636C21.3707 21.2146 21.5769 21.7761 22.2808 21.7761H24.1262C24.6534 21.7761 24.9171 21.5125 24.7649 20.9922C24.5986 20.4737 24.0012 19.7216 23.2085 18.8297C22.7784 18.3213 22.1332 17.7739 21.9378 17.5002C21.664 17.1483 21.7422 16.992 21.9378 16.6793C21.9378 16.6793 24.186 13.5121 24.4206 12.4367V12.4366Z" fill="white"/>
</svg>
