<svg width="47" height="45" viewBox="0 0 47 45" fill="none" xmlns="http://www.w3.org/2000/svg">
<g clip-path="url(#clip0_304_149)">
<path fill-rule="evenodd" clip-rule="evenodd" d="M13.2501 10.3235C13.1405 9.92113 12.9276 9.54097 12.6115 9.22492C11.6435 8.25689 10.074 8.25689 9.10601 9.22492C8.13799 10.1929 8.13799 11.7624 9.10601 12.7305C9.42205 13.0465 9.8022 13.2594 10.2046 13.369C9.37048 13.3891 8.43267 13.2648 7.567 12.8159L2.94996 17.433C4.18972 17.6467 5.97208 17.5481 7.909 16.8345C9.53259 16.2363 11.4712 14.2552 12.295 13.3543L38.4755 39.5349C38.7589 39.8183 39.2182 39.8183 39.5016 39.5349C39.7849 39.2516 39.7849 38.7923 39.5016 38.5089L13.3246 12.332C14.2608 11.4672 16.1364 9.59988 16.7156 8.02792C17.4292 6.091 17.5278 4.30864 17.3141 3.06888L12.697 7.68592C13.1459 8.5516 13.2702 9.48941 13.2501 10.3235Z" fill="#00618E"/>
<path fill-rule="evenodd" clip-rule="evenodd" d="M33.3907 10.2808C33.5004 9.87838 33.7133 9.49822 34.0293 9.18217C34.9973 8.21415 36.5668 8.21415 37.5348 9.18217C38.5029 10.1502 38.5029 11.7197 37.5348 12.6877C37.2188 13.0038 36.8386 13.2167 36.4361 13.3263C37.2703 13.3464 38.2081 13.2221 39.0738 12.7732L43.6909 17.3903C42.4511 17.604 40.6688 17.5054 38.7318 16.7918C37.1083 16.1936 35.1696 14.2124 34.3459 13.3116L8.1653 39.4922C7.88197 39.7756 7.42261 39.7756 7.13929 39.4922C6.85596 39.2089 6.85596 38.7496 7.13929 38.4662L33.3163 12.2892C32.38 11.4244 30.5044 9.55715 29.9253 7.98518C29.2117 6.04825 29.113 4.26589 29.3268 3.02613L33.9438 7.64317C33.4949 8.50885 33.3707 9.44667 33.3907 10.2808Z" fill="#00618E"/>
<mask id="mask0_304_149" style="mask-type:alpha" maskUnits="userSpaceOnUse" x="8" y="12" width="16" height="23">
<path d="M12.7826 12.9013C6.95085 18.7331 6.95085 28.1883 12.7826 34.02L23.342 23.4607L12.7826 12.9013Z" fill="#C4C4C4"/>
</mask>
<g mask="url(#mask0_304_149)">
<rect x="0.513245" y="23.4607" width="14.1472" height="14.1472" transform="rotate(-45 0.513245 23.4607)" fill="#00618E"/>
</g>
<mask id="mask1_304_149" style="mask-type:alpha" maskUnits="userSpaceOnUse" x="12" y="8" width="22" height="16">
<path d="M12.8251 12.8587C18.6568 7.0269 28.112 7.0269 33.9437 12.8587L23.3844 23.418L12.8251 12.8587Z" fill="#C4C4C4"/>
</mask>
<g mask="url(#mask1_304_149)">
<rect width="14.1472" height="14.1472" transform="matrix(-0.707107 0.707107 0.707107 0.707107 23.3844 0.589355)" fill="#00618E"/>
</g>
<mask id="mask2_304_149" style="mask-type:alpha" maskUnits="userSpaceOnUse" x="12" y="23" width="22" height="16">
<path d="M33.8583 33.9773C28.0265 39.809 18.5714 39.809 12.7396 33.9773L23.299 23.4179L33.8583 33.9773Z" fill="#C4C4C4"/>
</mask>
<g mask="url(#mask2_304_149)">
<rect width="14.1472" height="14.1472" transform="matrix(0.707107 -0.707107 -0.707107 -0.707107 23.299 46.2468)" fill="#00618E"/>
</g>
<mask id="mask3_304_149" style="mask-type:alpha" maskUnits="userSpaceOnUse" x="23" y="12" width="16" height="22">
<path d="M33.901 33.9346C39.7327 28.1028 39.7327 18.6477 33.901 12.8159L23.3416 23.3752L33.901 33.9346Z" fill="#C4C4C4"/>
</mask>
<g mask="url(#mask3_304_149)">
<rect x="46.1704" y="23.3752" width="14.1472" height="14.1472" transform="rotate(135 46.1704 23.3752)" fill="#00618E"/>
</g>
<rect x="23.3417" y="24.4014" width="1.451" height="5.80399" transform="rotate(-45 23.3417 24.4014)" fill="#00618E"/>
<path d="M23.1222 13.989C17.5261 13.989 12.9889 18.5256 12.9889 24.1223C12.9889 29.7191 17.5261 34.2557 23.1222 34.2557C28.7184 34.2557 33.2556 29.7191 33.2556 24.1223C33.2556 18.5256 28.7184 13.989 23.1222 13.989Z" fill="#00618E"/>
<path d="M23.1222 13.989C17.5261 13.989 12.9889 18.5256 12.9889 24.1223C12.9889 29.7191 17.5261 34.2557 23.1222 34.2557C28.7184 34.2557 33.2556 29.7191 33.2556 24.1223C33.2556 18.5256 28.7184 13.989 23.1222 13.989Z" fill="#00618E"/>
<circle cx="22.3222" cy="22.3224" r="4.66667" stroke="white" stroke-width="1.5"/>
<path d="M28.3223 28.3223L26.3223 26.3223" stroke="white" stroke-width="1.5" stroke-linecap="round"/>
</g>
<defs>
<clipPath id="clip0_304_149">
<rect width="47" height="45" fill="white"/>
</clipPath>
</defs>
</svg>
