<svg width="34" height="32" viewBox="0 0 34 32" fill="none" xmlns="http://www.w3.org/2000/svg">
<path d="M31.28 32H2.72C1.21788 32 0 30.7541 0 29.2174V2.78261C0 1.24591 1.21788 0 2.72 0H12.7017C13.6775 0 14.5792 0.535652 15.0634 1.40243L17 4.86957H31.28C32.7821 4.86957 34 6.11548 34 7.65217V29.2174C34 30.7541 32.7821 32 31.28 32Z" fill="#00618E"/>
<g clip-path="url(#clip0_304_140)">
<path d="M6.87821 11.1211L5.29321 9.53607L6.70721 8.12207L8.29321 9.70707C8.48358 9.8891 8.73682 9.99069 9.00021 9.99069C9.2636 9.99069 9.51685 9.8891 9.70721 9.70707L13.2932 6.12207L14.7072 7.53607L11.1212 11.1211C10.8426 11.3997 10.5119 11.6207 10.1479 11.7715C9.78387 11.9223 9.39372 11.9999 8.99971 11.9999C8.6057 11.9999 8.21556 11.9223 7.85155 11.7715C7.48754 11.6207 7.1568 11.3997 6.87821 11.1211ZM17.0002 11.0001H29.0002V9.00007H17.0002V11.0001ZM9.00021 20.0001C9.39433 20.0012 9.78474 19.9241 10.1488 19.7732C10.5129 19.6223 10.8434 19.4006 11.1212 19.1211L14.7072 15.5361L13.2932 14.1221L9.70721 17.7071C9.51685 17.8891 9.2636 17.9907 9.00021 17.9907C8.73682 17.9907 8.48358 17.8891 8.29321 17.7071L6.70721 16.1221L5.29321 17.5361L6.87821 19.1211C7.15625 19.4006 7.48695 19.6222 7.85119 19.7731C8.21543 19.924 8.60596 20.0011 9.00021 20.0001ZM17.0002 19.0001H29.0002V17.0001H17.0002V19.0001ZM9.00021 28.0001C9.39433 28.0012 9.78474 27.9241 10.1488 27.7732C10.5129 27.6223 10.8434 27.4006 11.1212 27.1211L14.7072 23.5361L13.2932 22.1221L9.70721 25.7071C9.51685 25.8891 9.2636 25.9907 9.00021 25.9907C8.73682 25.9907 8.48358 25.8891 8.29321 25.7071L6.70721 24.1221L5.29321 25.5361L6.87821 27.1211C7.15625 27.4006 7.48695 27.6222 7.85119 27.7731C8.21543 27.924 8.60596 28.0011 9.00021 28.0001ZM17.0002 27.0001H29.0002V25.0001H17.0002V27.0001Z" fill="white"/>
</g>
<defs>
<clipPath id="clip0_304_140">
<rect width="24" height="24" fill="white" transform="translate(5 6)"/>
</clipPath>
</defs>
</svg>
