<svg width="38" height="38" viewBox="0 0 38 38" fill="none" xmlns="http://www.w3.org/2000/svg">
<path d="M3.61445 11.4001H11.4C11.7503 11.4001 12.0334 11.117 12.0334 10.7668V2.98185C12.0334 2.71141 11.813 2.53345 11.5818 2.53345C11.4716 2.53345 11.3595 2.57335 11.2689 2.66518L3.29779 10.635C3.20532 10.7281 3.16669 10.8434 3.16669 10.9555C3.16669 11.1835 3.34719 11.4001 3.61445 11.4001Z" fill="#00618E"/>
<path d="M12.6667 25.3334C12.6667 18.3376 18.3376 12.6668 25.3334 12.6668C27.386 12.6668 29.3189 13.1658 31.0334 14.0329V3.80011C31.0334 3.10091 30.4659 2.53345 29.7667 2.53345H14.5667V10.7668C14.5667 12.516 13.1493 13.9334 11.4 13.9334H3.16669V33.5668C3.16669 34.266 3.73415 34.8335 4.43335 34.8335H16.9746C14.3387 32.5123 12.6667 29.1214 12.6667 25.3334Z" fill="#00618E"/>
<path d="M25.3333 15.2C19.7372 15.2 15.2 19.7365 15.2 25.3333C15.2 30.9301 19.7372 35.4666 25.3333 35.4666C30.9294 35.4666 35.4666 30.9301 35.4666 25.3333C35.4666 19.7365 30.9294 15.2 25.3333 15.2Z" fill="#00618E"/>
<g clip-path="url(#clip0_136_170)">
<path d="M27.8034 22.7788C27.8034 22.2832 27.4018 21.8816 26.9062 21.8816H21.5228C21.0272 21.8816 20.6256 22.2832 20.6256 22.7788V28.521C20.6256 29.0167 21.0272 29.4183 21.5228 29.4183H26.9062C27.4018 29.4183 27.8034 29.0167 27.8034 28.521V22.7788Z" fill="white"/>
<path d="M30.0751 22.7788C29.9969 22.7788 29.9195 22.7942 29.847 22.824L28.5211 23.3699V27.9299L29.847 28.4758C29.9195 28.5056 29.997 28.521 30.0751 28.521C30.4062 28.521 30.6745 28.2528 30.6745 27.9217V23.3782C30.6745 23.0471 30.4062 22.7788 30.0751 22.7788Z" fill="white"/>
</g>
<defs>
<clipPath id="clip0_136_170">
<rect width="10.7667" height="10.7667" fill="white" transform="translate(20.2667 20.2666)"/>
</clipPath>
</defs>
</svg>
