<svg width="38" height="38" viewBox="0 0 38 38" fill="none" xmlns="http://www.w3.org/2000/svg">
<path d="M33.5666 16.4666H19.6333C18.5838 16.4666 17.7333 17.3171 17.7333 18.3666V34.8332C17.7333 35.8826 18.5838 36.7332 19.6333 36.7332H33.5666C34.6154 36.7332 35.4666 35.8826 35.4666 34.8332V18.3666C35.4666 17.3171 34.6154 16.4666 33.5666 16.4666ZM22.7999 31.0332V33.5665H20.2666V31.0332H22.7999ZM22.7999 25.9666V28.4999H20.2666V25.9666H22.7999ZM27.8666 31.0332V33.5665H25.3333V31.0332H27.8666ZM27.8666 25.9666V28.4999H25.3333V25.9666H27.8666ZM32.9333 31.0332V33.5665H30.3999V31.0332H32.9333ZM32.9333 25.9666V28.4999H30.3999V25.9666H32.9333ZM32.9333 19.6332V22.1666H20.2666V19.6332H32.9333Z" fill="#00618E"/>
<path d="M15.2 18.3666C15.2 15.9225 17.1893 13.9332 19.6333 13.9332H27.2333V3.16657C27.2333 2.46737 26.6658 1.8999 25.9666 1.8999H4.43329C3.73409 1.8999 3.16663 2.46737 3.16663 3.16657V26.5999C3.16663 27.2991 3.73409 27.8666 4.43329 27.8666H15.2V18.3666ZM20.9 4.43324H24.7V6.33324H20.9V4.43324ZM5.69996 4.43324H18.3666V6.33324H5.69996V4.43324ZM5.69996 8.86657H18.3666V10.7666H5.69996V8.86657Z" fill="#00618E"/>
</svg>
