<svg width="38" height="38" viewBox="0 0 38 38" fill="none" xmlns="http://www.w3.org/2000/svg">
<path d="M3.61445 11.4001H11.4C11.7503 11.4001 12.0334 11.117 12.0334 10.7668V2.98185C12.0334 2.71141 11.813 2.53345 11.5818 2.53345C11.4716 2.53345 11.3595 2.57335 11.2689 2.66518L3.29779 10.635C3.20532 10.7281 3.16669 10.8434 3.16669 10.9555C3.16669 11.1835 3.34719 11.4001 3.61445 11.4001Z" fill="#00618E"/>
<path d="M12.6667 25.3334C12.6667 18.3376 18.3376 12.6668 25.3334 12.6668C27.386 12.6668 29.3189 13.1658 31.0334 14.0329V3.80011C31.0334 3.10091 30.4659 2.53345 29.7667 2.53345H14.5667V10.7668C14.5667 12.516 13.1493 13.9334 11.4 13.9334H3.16669V33.5668C3.16669 34.266 3.73415 34.8335 4.43335 34.8335H16.9746C14.3387 32.5123 12.6667 29.1214 12.6667 25.3334Z" fill="#00618E"/>
<path d="M25.3333 15.2C19.7372 15.2 15.2 19.7365 15.2 25.3333C15.2 30.9301 19.7372 35.4666 25.3333 35.4666C30.9294 35.4666 35.4666 30.9301 35.4666 25.3333C35.4666 19.7365 30.9294 15.2 25.3333 15.2Z" fill="#00618E"/>
<path d="M30 23.6196C30 23.3959 29.8184 23.2143 29.5946 23.2143H26.4286L25.3814 20.2693C25.3239 20.1079 25.1713 20 25 20C24.8288 20 24.6761 20.1079 24.6186 20.2693L23.5714 23.2143H20.4054C20.1816 23.2143 20 23.3959 20 23.6196C20 23.74 20.0534 23.8541 20.1457 23.9311L22.5 25.8929L21.4448 29.4873C21.4341 29.5239 21.4286 29.5618 21.4286 29.6C21.4286 29.8209 21.6079 30 21.8289 30C21.9166 30 22.0021 29.9711 22.0718 29.9177L25 27.6786L27.928 29.9177C27.9979 29.9711 28.0834 30 28.1711 30C28.3921 30 28.5714 29.8209 28.5714 29.6C28.5714 29.5618 28.5659 29.5239 28.5552 29.4873L27.5 25.8929L29.8543 23.9311C29.9466 23.8541 30 23.7398 30 23.6196Z" fill="white"/>
</svg>
