<svg width="38" height="38" viewBox="0 0 38 38" fill="none" xmlns="http://www.w3.org/2000/svg">
<path d="M8.23332 25.9666C9.98222 25.9666 11.4 24.5489 11.4 22.8C11.4 21.0511 9.98222 19.6333 8.23332 19.6333C6.48442 19.6333 5.06665 21.0511 5.06665 22.8C5.06665 24.5489 6.48442 25.9666 8.23332 25.9666Z" fill="#00618E"/>
<path d="M19 27.2332C20.7489 27.2332 22.1667 25.8155 22.1667 24.0666C22.1667 22.3177 20.7489 20.8999 19 20.8999C17.2511 20.8999 15.8334 22.3177 15.8334 24.0666C15.8334 25.8155 17.2511 27.2332 19 27.2332Z" fill="#00618E"/>
<path d="M24.0667 35.4666H13.9333C13.9333 32.3 15.3001 29.1333 19 29.1333C22.6999 29.1333 24.0667 32.3 24.0667 35.4666Z" fill="#00618E"/>
<path d="M29.7666 25.9666C31.5155 25.9666 32.9333 24.5489 32.9333 22.8C32.9333 21.0511 31.5155 19.6333 29.7666 19.6333C28.0177 19.6333 26.6 21.0511 26.6 22.8C26.6 24.5489 28.0177 25.9666 29.7666 25.9666Z" fill="#00618E"/>
<path d="M19.6333 13.3001C19.6333 13.9993 19.0658 14.5667 18.3666 14.5667H14.25L9.74508 17.57C9.58548 17.6764 9.39738 17.7334 9.20548 17.7334C8.66905 17.7334 8.23332 17.2983 8.23332 16.7612V14.5667H6.33332C5.63412 14.5667 5.06665 13.9993 5.06665 13.3001V4.43341C5.06665 3.73421 5.63412 3.16675 6.33332 3.16675H18.3666C19.0658 3.16675 19.6333 3.73421 19.6333 4.43341V13.3001Z" fill="#00618E"/>
<path d="M22.1666 15.4109L26.3549 18.2032C26.5145 18.3096 26.7026 18.3666 26.8945 18.3666C27.4315 18.3666 27.8666 17.9315 27.8666 17.3945V15.2H29.7666C30.4658 15.2 31.0333 14.6325 31.0333 13.9333V6.33332C31.0333 5.63412 30.4658 5.06665 29.7666 5.06665H22.1666V7.59998H28.5V12.6666H22.1666V15.4109Z" fill="#00618E"/>
<path d="M26.5322 34.2H34.8333C34.8333 31.0334 33.4666 27.8667 29.7667 27.8667C27.5981 27.8667 26.2358 28.9586 25.4758 30.4963C26.0325 31.5578 26.3948 32.8061 26.5322 34.2Z" fill="#00618E"/>
<path d="M12.5241 30.4963C11.7641 28.9586 10.4018 27.8667 8.23329 27.8667C4.53336 27.8667 3.16663 31.0334 3.16663 34.2H11.4677C11.6052 32.8061 11.9674 31.5578 12.5241 30.4963Z" fill="#00618E"/>
</svg>
